<svg xmlns="http://www.w3.org/2000/svg" xmlns:xlink="http://www.w3.org/1999/xlink" viewBox="0 0 982 1526" width="982" height="1526">
  <defs>
    <!-- LOGO -->
    <symbol id="LOGO_NO_FILL" viewBox="0 0 944 474">
      <path d="M31,51.7c40.6-7,55.2,39.8,55.2,52.3l0.9,206c0,49,78.9,32,78.9-34v-226c0-30.9-20-39.1-20-39.1l2-4.52c21-2.03,55,23.7,55,47.6v302c0,78-48,102-87,113-38.6,8-91,8-116-21l28-30c39.1,38,138,70,138-41v-57c-58,59-119,31-119-17v-224c0-15-9.7-22.2-17.7-24.2z"/>
      <path d="M297,228c-50,7-79,31-79,65,0,60,65,39,79,12v-9c-35,36-41-3-41-10,0-31,13-47,41-50z"/>
      <path d="M359,0.188c41-3.1,52,32.9,52,50.4v157c24-23,79-50,79,1v96c0,3,1,11,12,6l3,5c-31,21-54,12-54-21l-1-87c-2-24-39,7-39,7v119c0,6,2,11,13,6l3,5c-28,24-55,12-55-22l1-300c0-10.5-7-15.6-16-16.6z"/>
      <path d="M580,177,605,176,613,164,580,164,580,122c0-35.5-23-56.2-52-56.3l-3,5.2c12,5.5,12,5.2,12,27.5v65.6h-23l-7,13h30v117c0,45,39,46,60,23l-3-5c-9,3-14,0-14-7z"/>
      <path d="M742,324s-3,15-9,15h-103c-14,0-17-11-13-19l82-114h-80s2-14,11-14h98c11,0,14,15,8,26l-67,106z"/>
      <path d="M911,187h-3c-42,0-86,42-91,72-11,77,60,93,113,66l-2-3c-48,17-74-13-75-51-1-37,8-75,45-75,22,0,23,70-46,67v6c93,2,121-82,59-82z"/>
      <path d="M746,0.188c41-3.1,53,32.9,53,50.4v283c0,6,1,11,13,6l2,5c-27,24-54,12-55-22l1-300c0-10.5-7-15.6-16-16.6z"/>
      <path d="M235,193,238,197c26-22,58-20,58,19v91c0,17,10,25,24,25,8,0,25-7,34-18l-1-4c-14,7-17,0-17-9v-73c0-34-16-49-36-56-22-8-51,9-65,21z"/>
    </symbol>

    <filter id="F_DROP_SHADOW">
      <feOffset result="offOut" in="SourceAlpha" dx="20" dy="20"/>
      <feGaussianBlur result="blurOut" in="offOut" stdDeviation="8"/>
      <feBlend in="SourceGraphic" in2="blurOut" mode="normal"/>
    </filter>

    <filter id="F_SHADOW">
      <feGaussianBlur stdDeviation="8"/>
    </filter>
  </defs>

  <!-- LOGO + DROP SHADOW -->
  <use xlink:href="#LOGO_NO_FILL" fill="#ffd42a" x="4" y="4" width="944" height="474" filter="url(#F_DROP_SHADOW)"/>

  <!-- LOGO SHADOW -->
  <use xlink:href="#LOGO_NO_FILL" opacity="0.95" x="4" y="536" width="944" height="474" filter="url(#F_SHADOW)"/>

  <!-- GOLD LOGO -->
  <use xlink:href="#LOGO_NO_FILL" fill="#ffd42a" x="4" y="1048" width="944" height="474"/>
</svg>
