<svg xmlns="http://www.w3.org/2000/svg" xmlns:xlink="http://www.w3.org/1999/xlink" viewBox="0 0 261 365" width="261" height="365"><symbol id="b" viewBox="0 0 154 210"><path fill="red" d="M76.9 0C66 24.3 22 84.2 0 105c22 21 66 81 76.9 105 10.8-24 55.1-84 77.1-105C132 84.2 87.7 24.3 76.9 0z"/></symbol><symbol id="a" viewBox="0 0 204 225"><g fill="red"><path d="M47 149h106v-28H47z"/><path d="M87-.5l-87 226 31-1 72-186 72 186h29l-87-226z"/></g></symbol><rect ry="8.05" width="261" height="365" fill="#f9f9f9"/><use x="8.29" y="12.58" width="31.21" height="34.43" xlink:href="#a"/><use x="10.9" y="52.7" width="26" height="31.79" xlink:href="#b"/><use x="-237" y="-335" width="31.21" height="34.43" transform="rotate(180 7.805 8.61)" xlink:href="#a"/><use x="224" y="281.1" width="26" height="31.79" xlink:href="#b"/><use x="105" y="148.91" width="50" height="68.18" xlink:href="#b"/></svg>