<svg xmlns="http://www.w3.org/2000/svg" viewBox="0 0 330 348" width="330" height="348">
<!--
  height="348" width="330" viewBox="0 0 330 348"
  - not specifying h/w (viewport), svg adjusts to fit container & scaling can easily be achieved
    with css height / width (constraining measure is used for proportional scaling)
  - preserveAspectRatio is used in conjunction
    - preserveAspectRatio="none" + no viewport, offloads scaling to container css
    - http://tutorials.jenkov.com/svg/svg-viewport-view-box.html
-->
  <g id="selectable_region">
  <!--
    group selectable region events (ie. touches) only trigger the shapes
    defined within the group, not empty areas
  -->
    <path fill="#000" d="M19.3,59.4c3.2-1,4.7-2,5.2-5,7.2-42,8-42,47.8-44,2.9,0,4.6-0.98,5.6-1.98,7.2-11,10.4-10,17.5-4,15.6,15,39.6,29,59.6,44,5,4,6,4,11,1,26-15,65-7,94,18,5,4,6,4,11,0,17-10,55-11,58-8s3,49.6-16,69.6c-3,4-3,5-3,10,7,36,7,57-3,75-3,4-2,7-1,11,4,11,4,29,0,43-6,19-15,27-31,38-3,2-7,4-9,6-3,3-4,7-8,11-18,21-48,29-81,21-6-2-9-4-13-4-3,0-6,2-11,3-33,5-59.3-23-68.8-48-2.8-7-2.8-7-7.7-11-8-6-16-16-19-30-0.7-3-1.5-4-4.3-6-30.7-19-49.8-55-53.2-90-0.174-3,0.726-4,4.93-6,8.37-4,18-8,29.4-10-0.5-18-15.1-34-23.2-52.6-7.07-16-4.77-26,8.2-30z"/>
    <path fill="#fdd0af" d="M16,167c-0.6-3,1.2-4,2.7-5,19.7-9,41.6-10,62.1,10,7.1,7,15.9,4,10.9-5-3.9-7-19-17-18.9-18,0.2-1,7.1-4,15.5-6s16.7-1,16.7-1c0,1-5.7,10-5,18,1,7,5,3,7,1,7-5,5-21,20-25,8-2,14,6,21,9,9,4,8-2,6-7-3-6-17-11-17-13,2-15,24-56.6,34-62.6,19-11,53-10,88,21,2,2,5,6,7,6,3,0,7-4,8-5,16-13,42-12,42-11,1,1,0,32.6-15,48.6-7,8-6,11-4,20,8,31,5,57-7,68,0,0-8-1-9,2-1,5,4,7,7,10,12,12,9,34,2,49-4,9-23,27-27,23l-3,1c-7,22-22,30-43,36-18,6-48-1-55-7-6-4-5,0-6,2-4,5-20,5-31-2-14-8-24-27-32.2-46-0.8-2-1.2-3-4.7-5-10.4-5-16.6-20-20.1-33-0.6-2-1.3-4-3.2-5-12.1-7-20.8-13-29.2-24-13-17-18.9-40-19.6-44z"/>

    <g fill="#FFF">
      <path d="M90.6,18.4c2,0,12.4,13,27.4,23,10,6,31,15,31,20,1,7-11,23-16,33-4,10.6-13,28.6-14,29.6-3,2-17,4-34,7-16.5,4-31.7,10-33.7,8-3.4-4-5.6-18-13.6-30-8.5-13.6-15.4-29.6-13.3-30.6,2.9-1,11,5,35.2,6,24.1,1,27.8,3,35.9,10,2.2,2,4.5,4,7.5,3,2-1,1-10-1-13-10.1-30-15.6-65-11.4-66z"/>
      <path d="M39,43.4c0.8-5,5-6,8.2-3,10.6,10,19.8,21,26.3,28,3.9,5-2,6-4.6,6-7.9,1-16.9,0-26-2-4.2,0-5.8-1-5.7-5,0.2-7,0.4-15,1.8-24z"/>
      <path d="M55.7,31.4c-1-2-3.1-6,1.1-7,4,0,6.1-1,9.6-1,4.2,0,8,0,9.7,9,1.4,7,2.1,11,4.1,19,3,11-2.7,6-4.8,4-8.1-8-14.8-16-19.7-24z"/>
      <path d="M138,179c24,3,34,42,34,61-17,7-31,6-54,4,0,0-21.8-70,20-65z"/>
      <path d="M221,153c37,5,37,59,34,70-4,2-36,4-48,2-19-31-8-75,14-72z"/>
    </g>

    <g fill="#000">
      <path d="M236,187c8,7,12,32,6,35v1c14,12,17,20,20,30,1,3,1,6-2,9-2,3-16,12-17,16-7,13-5,41-26,41-16,1-22-10-25-13-2-3-11-14-14-14s-2,6-5,6c-5,0-3-20-8-28-8-14-12-19-24-23-11-3-29,15-33,20-1,2-7,3-5-2,4-9,12-14,12-17,1-1-3-9-4-13s-3-15-3-26,3-33,23-35,32,17,34,21c8,12,9,27,9,42,0,3-3,5-4,0-2-7-2-16-5-25-3-8-13-32-31-31s-20,22-20,33c1,14,4,25,6,28,4,3,10,0,10-3-2-10-2-17,0-23,1-3,7-9,9-8,4,2,4,10,6,10,1,0,3-10,6-10,7,2,14,17,12,32-1,4-1,4-4,4-2,0-1,2,0,3s12,16,14,28c3,12,4,9,6,10h16c2-1,5-1,4-5-5-10-10-24-6-44-4-1-7,8-12,4-3-4,6-5,5-9-1-2-6-1-8-1-3-1-2-4-1-5,3-1,12,2,22,1,2,0,3-2,3-4-1-2-8-12-8-35,0-27,17-39,25-39,7,0,18-1,32,23,8,14,11,39,9,49-2,5-6,3-6,3,3-39-11-60-27-66-18-6-28,18-26,33,3,23,5,33,11,32,2,0,0,5-3,7-8,4-9,10-10,22,0,12,1,21,9,31,1,1,4-2,4-3-7-13-13-41,3-53-6-11-5-35,7-42,3,1,8,10,9,10,1,1,3-4,3-7z"/>
      <path d="M275,91.4c5-7,20-16,28-14,8,3,2,8-1,9-3,2-9,1-22,11-4,2.6-8-2-5-6z"/>
      <path d="M221,101c19,1,24,18,24,20,0,4-3,3-4,2-4-5-11-12-20-13s-15,11-20,18c-1,3-6,5-6,1,0-6,8-28,26-28z"/>
      <path d="M34.4,167c22.4-1,37.4,6,47.7,21,4.4,7-0.3,7-3.8,4-20.5-18-33.7-17-47.5-17-5.6,0-6.1-8,3.6-8z"/>
    </g>

    <path fill="#fdd0af" d="M210,248c3-20,19-27,32-15,9,8,10,14,13,21,1,5-5,10-15,16s-22,8-23,5c-5-8-8-18-7-27z"/>
    <path fill="#f68266" d="M217,300c1-2-1-9,1-13,1-4,15-6,15-6s-1,9-2,12c-3,11-1,16-14,20-9,2-19-10-22-15-1-2-2-4-2-5,1,0,6-1,12,1s10,8,12,6z"/>

    <g fill="#000">
      <path d="M217,254c1-1,3-1,4,0s2,2,5,3,4,10-1,10-6-2-7-4c-4-6-2-7-1-9z"/>
      <path d="M241,245c2-3,5-3,7,0s2,9-1,12c-2,2-5,2-7-1-1-3-2-9,1-11z"/>
    </g>

    <g fill="#fdd0af">
      <path d="M244,248c2,0,2,5,0,5s-3-5,0-5z"/>
      <path d="M221,258c2-1,5,4,2,5-4,1-4-4-2-5z"/>
    </g>
  </g>
</svg>
