<svg xmlns="http://www.w3.org/2000/svg" xmlns:xlink="http://www.w3.org/1999/xlink" viewBox="0 0 504 603" width="504" height="603" preserveAspectRatio="xMinYMin slice">
  <defs>
    <symbol id="S_FLOWER" viewBox="0 0 12.872 14.85">
      <path d="M7.86 0c-.674.092-1.31.414-1.89.757-.59.21-.92 1.5-1.15 1.48-.082-.407-.422-.908-.754-.54-.663-.457-1.27.266-1.49.687.215.176-.662.793-.145 1.17-.76.01-1.26.73-1.28 1.48.39.764-.8.903-.7 1.6-.31.51-.59 1.13-.35 1.74-.02.325-.26.89.26.817-.04.53.18 1.15.54 1.6.29.17-.34.64.2.81.44-.07.89-.27.7.36.41.52.43 1.13.68 1.7.41.5 1.21.6 1.76.97.5.55 1.23-.04 1.84.1.59.14 1.2-.33 1.44-.87-.02-.66.44-1.65 1.14-.87.51.52.89-.36 1.47-.15.57-.11-.44-1.07.36-1.13.7-.42 1.53-.8 1.82-1.63.06-.42.78-.18.52-.76-.17-.68-.42-1.38-.9-1.96-.53-.7-1.22-1.34-2.06-1.64.34-.4 1.39-.45 1.21-1.06-.95-.23-.39-1.28-.35-1.95.16-.4.55-.78-.07-.98-.3-.17-.4-1.2-.79-.79C9.23.6 8.72.05 7.99-.03h-.08z" fill="#fffb73"/>
      <path d="M4.72 3.33c-.105.092-.198.197-.28.31.003.012.007.012.007.045-.032.055-.037.027-.033-.008-.448.65-.512 1.58-.074 2.24.358.467 1.32.447 1.47-.192.11-.63-.34-1.15-.58-1.68-.05-.1-.11-.21-.16-.31.026-.003.046-.015.003-.052l-.025.01c-.09-.14-.19-.28-.33-.37zm-.31.34l.026-.037c-.008-.04-.022-.005-.026.037zM9.8 5.73c-.174.09-.503.68-.716 1.09-.204.086-.72.07-1.03.087-.33.154-.696.308-1.06.463l.065.25c.84.25 1.22.376 1.9.56.58.316 1.13.5 1.68.676.33.16.56.242.72.278.39-.022.71.042.98.144l.19.07c.03.02.01.15-.09.42.13.047.24.032.34.01.05-.17.03-.305-.03-.42 0-.32-.1-.39-.2-.48.2-.33-.1-.55-.3-.79-.2-.62-.6-1.03-1-1.44-.5-.36-.9-.87-1.49-.92zm.575 4.28c-1.12-.06-2.16 1.2-1.72 2.28.324.55 1.16.286 1.37-.234.17-.34.142-.742.22-1.11.006.004.01.008.042.015.058-.02-.01-.02-.04-.02.038-.18.103-.36.236-.51.03-.05.046-.12.05-.18-.072-.01-.14-.06-.01-.11-.022-.05-.066-.1-.14-.12zm.14.12c.013.034.013.073.01.113.064.008.122-.02.022-.13-.016.006-.02.01-.032.016zm-1.45.4c-.054.06.112-.016 0 0zm-3.05.8c-.53.29-.508.963-.59 1.48.075.414-.34.617-.577.894-.002-.007-.004-.015-.01-.028-.098-.03-.034.037-.003.045-.11.14-.18.29-.13.49.137.49.743.49 1.15.41.56-.15 1.26-.29 1.53-.88.174-.48-.297-.87-.622-1.16-.396-.22-.382-.68-.56-1.03-.047.01-.08 0-.03-.05-.027-.04-.057-.09-.093-.12zm.15.158l.03.057c.07-.01.156-.06-.01-.078-.012.01-.014.014-.02.02zm.9 2.54c.004-.005.015 0 .036.025.01.09-.04-.01-.03-.025z" fill-opacity=".484" fill="#fcdc0c"/>
      <path d="M8.5.372c-.156.703-.873 1.08-1.17 1.73-.165.612.405-.128.46-.365.28-.36 1.08-.842.788-1.34zm.44.404c-.39.226-.187.933.092.285C9.09.97 9.11.77 8.94.78zm-1.85.368c-.414.663-.738 1.42-.685 2.22.42-.333.15-1.22.614-1.67.02-.132.34-.516.07-.546zm-3.46.473c-.88-.003-1.07 1.15-.486 1.67.48.736.687 1.62 1.22 2.32.428.113-.343-.613-.376-.86-.198-.553-.293-1.13-.742-1.55-.344-.456-.037-1.61.604-1.23.757.13.163-.334-.223-.355zm-.374.06l-.01.006zm3.95.17c-.41.378-.27 1.02-.555 1.48-.14.707-.62 1.48-.28 2.19.41.092.81-.473 1.19-.676.5-.39 1.23-.43 1.7-.62-.31-.42 1.34.11.94-.36-.47-.12-1.15.05-1.71.23-.64.18-1.41.92-1.82 1.05.4-.44.78-.91 1.09-1.43.13-.32.89-.71.63-.96-.53.39-.82 1.03-1.34 1.45-.23.14-.75 1.24-.54.47.13-.72.44-1.39.6-2.1-.01-.21.29-.5.12-.68zm3.29.007c-.313.11-.784.698-.163.444.425.184.603-.263.163-.444zm-4.46.5c-.376.248.118.964.107.288-.005-.102-.025-.217-.107-.288zm-.858.158c-.26.44.125 1.09.327 1.53.285-.212-.237-.9-.23-1.32-.023-.072-.053-.143-.096-.205zm-.38.153c-.414.543-.105 1.22-.016 1.72-.15.343.273.846.14.228-.112-.29.204-1.11 0-1.05-.356.235.1-.8-.123-.898zm-.063.03L4.73 2.7zm-.466.394c-.5.44.62.87.23.13-.22.47-.11.18-.24-.14zm1.68.46c-.29.18.06 1.02-.09.95-.26-.71-.31.57.12.65.42.42.03-.57.09-.82-.11-.25.07-.58-.14-.78zm-3.92.12c-.27.06-.81.7-.49.65.15-.21.6-.32.48-.65zm.64.33c-.04.83 1.03 1 1.36 1.66.19.24.67.25.22-.04-.51-.54-1.23-.94-1.57-1.62zm2.73.09c-.4.17-.41 1.2-.18 1.14-.05-.39.1-.77.18-1.14zm5.49.52c-.72.15.34.58.19.04L11 4.6h-.11zm-6.26.02c-.06.27-.01.63-.25.19-.28.21.74 1.42.48.54-.07-.25-.13-.5-.24-.73zm-2.53.06c-.26.37.79.58.2.19l-.1-.1zm7.22.07c-.64.16-1.25.4-1.89.57-.29-.02-.94.59-.36.38.61-.35 1.33-.4 1.96-.7.13-.06.71-.05.28-.26zm.34.31c-.37-.07-.79.26-.18.23.29.09.74-.25.17-.24zm-3.77.01c-.27.19-.23 1.07.05.82-.12-.26.15-.67-.06-.83zm3.94.65c-.5.42-.67 1.47-1.51 1.14-.23.03-1.22.37-.8.51.53-.47 1.47.17 1.76-.6.12-.41.78-.6.74-.94l-.1-.07zm-2.76.38c-.57.3.44.19.63.38.39.11 1.56.27 1.42-.3-.65.19-1.38-.02-2.06-.09zm-3.14.09c-.05.55 1.31.24.4.12-.14-.02-.29-.05-.4-.13zm-2.63.25c.08.37-.29.03-.5.2-.69-.29.08.41.44.16.32-.01.93.05.31-.23-.09-.05-.19-.07-.26-.14zm9.87.59c-.32.15-.83.45-.16.47.2.22.73-.03.44-.19-.24.31-.6-.1-.23-.24l-.02-.04-.04-.02zm-9.43.06c.26.63 1.45.76 1.81.54-.75.04-1.15-.32-1.81-.54zm-.41.11c.3.52-.77-.14-.33.3.21.19 1.25 0 .55-.16l-.13-.05zm-.37.33c-.59.24.23.36.1.02zm6.43.03c.58.47 1.51.41 2.16.86.75.11 1.37.68 2.13.7.24-.39-.62.04-.65-.43-.29.003-.62-.224-.13-.138.46-.01 1.17.62 1.48.22-.36-.21-1.03-.29-1.59-.36-.7-.155-1.38-.37-2.08-.51-.45-.105-.88-.26-1.32-.35zm4.46.08c-.42.24.58.27 0 0zm-.15.04c-.08.02.06.01 0 0zm-4.55.09c-.17.3.84.71.34.23-.11-.09-.23-.16-.35-.23zm-5.17.05c-.56.26 1.35.35.42.37-.41-.008-1.03-.328-1.29-.02.81.05 1.69.33 2.46-.02-.09-.28-.94-.24-1.35-.28-.09-.01-.17-.045-.25-.058zm8.25 0c.04.496 1.13.02.36.04-.12.004-.26.03-.37-.04zm1.64.18c-.27-.09-.8.203-.25.175.07-.014.37-.036.25-.177zm-4.79.02c-.29.673-.02 1.53.08 2.26.1.17-.35.78.02.77.16-.49.15-.97-.01-1.52-.06-.354-.14-.877-.01-1.14.17.59.54 1.1.7 1.69.21.61.76.943 1.05 1.51.06.233.64.77.64.4-.56-.18-.62-.897-1.1-1.21-.4-.48-.57-1.13-.84-1.71-.23-.334-.24-.78-.54-1.05zm4.99.006c-.17.406.77.346.16.06l-.08-.03zM.57 8.2c-.677.29.793.21.102.023zm.633.145c-.423.48 1.45.11.4.03-.133-.02-.267-.024-.4-.03zm5.49.036c-.367.2-.028 1.15-.034.45.01-.14.2-.33.03-.45zm.19.03c-.35.2-.01.96.02.27-.028-.09.1-.22-.02-.27zM.66 8.62c-.72.276.24.764.32.136-.056-.11-.207-.136-.32-.133zm1.05.044c-.374-.055-.83.5-.207.254.104-.03.272-.122.206-.257zm9.96.135c.03.03-.05 0 0 0zm-8.75.03c-.32.02-1.22.29-1.07.47.305-.24.9-.15 1.07-.48zm.515 0c-.535.29-.412 1.07-.958 1.38-.238.24-.74.86-.453 1.06.057-.75.798-.93 1.3-1.33.186-.27 1.75-1.03 1.25-1.37-.38.03-1.54 1.43-1.14.25zm5.55.05c-.275.28.7.56.2.1-.076-.01-.13-.07-.2-.1zm-.632.17c-.07.3.69.83.758.64-.22-.23-.51-.43-.75-.64zm-5.7.07c-.6.24-1.04.74-1.58 1.09.61-.14 1.19-.63 1.58-1.09zm6.69.09c.138.53.884.68 1.21 1.15.558.19.173-.17-.084-.33-.29-.38-.8-.49-1.12-.83zm-8.33.09c-.417-.08-.63.88-.213.42.004-.16.35-.28.215-.42zm4.77-.21c-.517.82.045 2.61-.057 1.58-.036-.16.255-1.52.056-1.58zm-4.55.54c-.353.06-.467.73-.085.24.126-.04.37-.19.084-.24zm1.15.08c-.117.38-.932 1.03-.735 1.18.273-.37.78-.66.734-1.18zm6.76.04c.03.36.778.93 1.06.63-.408-.11-.695-.44-1.06-.63zm-4.54.06c-.504.51-1.09.96-1.62 1.42.522-.09.937-.58 1.35-.91.135-.14.27-.31.268-.52zm-.827.16c-.398.04-.468.52-.036.18.12-.03.26-.2.037-.19zm-2.14.07c-.34-.01-.865.77-.382.63.15-.19.452-.35.38-.64zm3.18.28c-.497.75-1.11 1.42-1.64 2.14.172.24-.582.65-.114.59.43-.64.76-1.36 1.35-1.89.187-.22.514-.56.4-.85zm2.64.01c-.215.32.492 1.04.184.34-.034-.12-.063-.27-.183-.34zm2.12.18c-.305.5.86.92.717.29-.345.33-.457-.09-.718-.3zm-1.51.06c-.42.43.173.63.05 1.13-.128.28.23.86.21.27-.07-.47-.05-.97-.26-1.4zm1.1.06c-.03.35.532 1.07.82.86-.38-.17-.57-.55-.82-.86zm-7.13.21c.09-.04.002.08 0 0zm1.55.16c-.396.23-.9.59-.73 1.04-.316.16-.472.47-.242.57-.327.22-.242.76.05.25.234-.66.632-1.28.92-1.86zm2.22.18c.327.41.505.93.7 1.42.1.48 1.09.52 1.25.11-.557.11-1.01.09-1.3-.43.032-.49.027-1.1-.648-1.1zm-1.26.04c-.24.75-.61 1.49-1.29 1.91.03.4.354-.04.384.12.36-.52.727-1.09.946-1.69.02-.12.015-.24-.036-.34zm.897.32c-.37.81-.516 1.7-.503 2.59.44.273.076-1.07.27-1.42.02-.4.355-.776.235-1.17zm.187.725c-.3.456-.57 1.32-.112 1.68.08-.178.245-1.06.093-.948-.31.64-.1-.35.04-.52l.01-.11zm-1.24.15c.05.364-.63.96-.37 1.09.07-.31.494-.46.227-.076-.156.09-.204.47.045.23-.045.18-.482.89-.03.48.29-.52.26-1.16.13-1.72zm1.86 1.19c-.18.44 1 .45.28.164-.095-.05-.185-.11-.28-.16zm-1.21.585c.086.04-.082.06 0 0z" fill-opacity=".751" fill="#fadf14"/>
      <path d="M6.13 7.98c.02-.102.043-.245.04-.36-.005-.365-.86.24-.91.453-.046.038.03.02.077.042s.077.114.13.11c.056-.004.17-.055.192-.02.41.154.22-.224.47-.226z" fill-opacity=".997" fill="#971c23"/>
      <path d="M6.72 6.56s.05-.293-.136-.543-.4-.348-.526-.23-.212.15-.284.145c-.072-.004-.165-.23-.352-.212s-.445.204-.492.284c-.047.08-.216.174-.182.267.034.1.127.22.2.26.07.04 1.21.5 1.77.03z" fill-opacity=".745" fill="#cf2103"/>
      <path d="M6.44 7s.085.072.148-.017c.064-.09.157-.233.14-.36s-.237-.59-.428-.644c-.19-.06-.288.13-.297.17-.008.03-.072.09-.127.07-.055-.02-.09-.09-.09-.18s-.088-.11-.156-.09c-.068.02-.17.01-.174.11s-.025-.05-.076-.04c-.05.01-.004.07-.026.1-.02.03-.072-.02-.102-.05-.03-.03.008.07-.004.12s-.06.08-.153.07c-.093-.01-.084.04-.072.09s.008.1-.034.11c-.05.02.03.05 0 .09-.02.04-.13 0-.12.06.01.05.14.11.11.15-.03.04-.06.14.03.16s.96.12 1.11.07c.15-.06.3-.02.3-.02z" fill-opacity=".98" fill="#840601"/>
      <path d="M5.93 8.79c-.106.02-.377-.055-.475-.182-.098-.127-.093-.212-.025-.246.067-.034.356-.106.428-.165.072-.06.097-.2.16-.22.115-.068.28-.19.298-.14.017.05-.22.882-.386.954z" fill-opacity=".994" fill="#c93458"/>
      <path d="M7.08 7.2c-.02-.004-.12-.05-.144-.085-.263.06-.454.178-.297.483l-.12.22c-.11 0-.34.14-.37.322-.04.182-.19.242-.17.37s-.02.22.01.275c.02.055.08.03.11-.05s.03.054.07-.03c.04-.085.02-.148.08-.2.06-.05.12.068.15-.02.03-.09.01-.124.06-.158s.13-.008.18-.093c.04-.085.08-.136.14-.157.06-.02.03-.068.04-.12 0-.05.03-.04.09-.075.06-.034.04-.08.02-.12-.02-.037-.01-.054.06-.088.07-.034.08-.06.04-.123s-.03-.06-.01-.11c.02-.04.02-.09 0-.12-.03-.03-.04-.1.02-.11z" fill-opacity=".925" fill="#9e0202"/>
      <path d="M6.28 7.63s-.47-.02-.555.085c-.085.106-.865.458-.91.48-.048.02-.306-.052-.234-.217.08-.165.14-.254.08-.382-.06-.127-.11-.254-.03-.284.09-.03.17-.055.23-.038s.8.11.85.157z" fill-opacity=".991" fill="#c93458"/>
      <path d="M6.28 6.88c.054-.028.08-.104.075-.163-.005-.05-.043-.102-.088-.128-.038-.03-.097-.04-.13-.01-.04.03-.026.09-.025.14.002.04-.004.1.03.13.033.03.096.04.137.02zm.48.08c-.027-.047-.03-.105-.03-.174 0-.065-.127.03-.17.08-.028.032-.074.097-.07.14.005.08.14.136.214.168.12.03.196-.073.196-.073-.086-.04-.122-.1-.14-.14zm-.09.86c.06-.03.036-.17-.027-.215-.106-.074-.487.002-.6.026-.13.03-.147.12-.12.19.047.12.213.14.287.14.09 0 .13-.09.227-.07.108.03.195-.04.233-.06z" fill="#300404"/>
      <path d="M6.8 7.15c-.347.14-.154.474-.154.474-.134-.02-.39.095-.39.095.018-.08-.022-.11-.066-.13-.376-.11-1.46-.33-2.16-.57-.686-.23-1.31-.46-2.01-.82-.244-.13-.55-.07-.55-.07L1.5 6s.174.026.245-.01c-.07-.026-.248-.19-.248-.19l.06-.086s.182.18.248.14c0 0-.174-.268-.2-.408l.073-.033c.034.105.212.26.212.26l-.018-.298.094-.043s.097.416.23.533c.4.348.76.424 1.17.588.558.225 1.14.404 1.74.473.41.047 1.12.228 1.23-.043.14.134.293.28.472.265z" fill="#db8f06"/>
      <path d="M3.86 6.93c0 .026.035.246.03.395M3.85 6.23s-.145.325-.18.378m.04-.588s0 .457-.022.606m-.168.654c.022-.018.378-.233.426-.316m-.926.346c.004-.018.097-.514.167-.602m-.547.502s.114-.545.14-.7m-1.02.11c.035-.03.29-.272.365-.382M2.14 5.23s.07.48.075.672m.205-.542c.01.022.026.554.01.712m-.33.778s.277-.308.338-.435m.942-.605s-.07.44-.132.64M2.55 5.23s.004.8-.03.883M2.08 6.1s-.224-.14-.28-.268m-.07.158s.198.01.272.057m-.322.363c.018 0 .505-.057.602-.123m.038.523c.193-.206.272-.365.272-.365m.368-.805s-.158.466-.206.59m-.434-.72c.018.01.066.448.057.55m.473-.64c-.004.022-.057.786-.03.857m.51-.527c-.03.022-.185.46-.193.64m-.207.84s.25-.33.312-.505M1.73 6.25s.193.03.343-.03" stroke="#db8f06" stroke-width=".026" fill="none"/>
      <circle id="a" cx="3.88" cy="6.17" r=".066" fill="#db8f06"/>
      <use xlink:href="#a" transform="translate(-.163 -.17)"/>
      <use id="b" xlink:href="#a" transform="translate(-.554 -.483)"/>
      <use id="c" xlink:href="#b" transform="translate(-.448 -.29)"/>
      <use id="d" xlink:href="#c" transform="translate(1.02 1.95)"/>
      <use id="e" xlink:href="#d" transform="translate(-.492 -1.56)"/>
      <use id="f" xlink:href="#e" transform="translate(-.857 -.602)"/>
      <use xlink:href="#f" transform="translate(.43 .43)"/>
      <use id="g" xlink:href="#a" transform="translate(-1.62 .677)"/>
      <use id="h" xlink:href="#g" transform="translate(.365 .41)"/>
      <use id="i" xlink:href="#h" transform="translate(.25 .018)"/>
      <use id="j" xlink:href="#i" transform="translate(.127 .066)"/>
      <use xlink:href="#j" transform="translate(.488 -.06)"/>
      <use id="k" xlink:href="#a" transform="translate(-2.21 .08)"/>
      <use id="l" xlink:href="#k" transform="translate(-.04 .176)"/>
      <use id="m" xlink:href="#l" transform="translate(.088 .224)"/>
      <use id="n" xlink:href="#m" transform="translate(.356 .224)"/>
      <use id="o" xlink:href="#n" transform="translate(.066 -1.71)"/>
      <use id="p" xlink:href="#o" transform="translate(.167 .3)"/>
      <use xlink:href="#p" transform="translate(.12 -.123)"/>
      <g fill="#c02e06">
        <ellipse rx=".198" ry=".178" cy="5.69" cx="1.84"/>
        <ellipse rx=".175" ry=".16" cy="5.29" cx="1.9"/>
        <ellipse rx=".13" ry=".163" cy="5.36" cx="1.59"/>
        <ellipse rx=".175" ry=".132" cy="5.71" cx="1.44"/>
        <ellipse rx=".165" ry=".178" cy="6.07" cx="1.4"/>
      </g>
    </symbol>

    <symbol id="S_BRA" viewBox="-0.168 -0.165 33.859 16.637">
      <path d="M13.4 2.06C9.99-.1 4.1-.71 1 .95c-.988 3.46-2.04 8.26.855 12.9 4.18.985 9.68-.684 14.5-.04 5.08.687 10.4 3.69 15.4 2.39 2.35-4.29 2.22-7.31 1.55-10.6-2.9-2.01-7-2.94-10.9-2.07-2.3.44-4.8 1.28-5.4 1.95-1.1-1.32-2.5-2.68-3.7-3.47z" fill="#da2926"/>
      <g stroke-linejoin="round" stroke="#000" stroke-linecap="round" fill="none">
        <path d="M16.6 12.7c.198-.1 4.34 1.27 5.92 1.75" stroke-opacity=".039" stroke-width=".397"/>
        <path d="M17.4 11.5c2.15.325 4.66 1.63 7.51 1.06" stroke-opacity=".035" stroke-width=".529"/>
        <path d="M11.9 12.9c-1.4.1-3.99.4-5.7.4" stroke-opacity=".031" stroke-width=".529"/>
        <path d="M12.3 11.9c-.9.3-5.4-.8-8.19-1.2" stroke-opacity=".051" stroke-width=".397"/>
        <path d="M12.8 10.5C11.4 9.56 9.35 7.61 8 7.34" stroke-opacity=".031" stroke-width=".529"/>
        <path d="M14.7 13.3c.298-.633.987-3.22 3.85-4.96" stroke-opacity=".051" stroke-width=".265"/>
        <path d="M16.8 5.54c-2 1.17-3.5 4.23-4.5 7.96" stroke-opacity=".051" stroke-width=".344"/>
        <path d="M16.2 6.87c.033 0 2.67-2.17 5.99-2.49" stroke-opacity=".047" stroke-width=".423"/>
      </g>
    </symbol>

    <symbol id="S_LEI" viewBox="0 0 31.357 39.143">
    <!--<svg xmlns="http://www.w3.org/2000/svg" height="148" width="119" xmlns:xlink="http://www.w3.org/1999/xlink" viewBox="0 0 31.357429 39.142514">-->
      <use xlink:href="#f1" transform="matrix(-.888 -.459 -.459 .888 15.1 4.64)"/>
      <use xlink:href="#f1" transform="rotate(156 15.5 6.58)"/>
      <use xlink:href="#f1" transform="matrix(1 .0214 .0214 -1 17.9 10.7)"/>
      <use xlink:href="#f1" transform="rotate(162 15.9 7.64)"/>
      <use xlink:href="#f1" transform="rotate(158 15.8 8.61)"/>
      <use xlink:href="#f1" transform="rotate(160 15.8 9.18)"/>
      <use xlink:href="#f1" transform="matrix(.999 .0335 .0335 -.999 19 16.3)"/>
      <use xlink:href="#f1" transform="rotate(160 15.8 10.8)"/>
      <use xlink:href="#f1" transform="rotate(160 15.6 11.5)"/>
      <use xlink:href="#f1" transform="matrix(.997 .0784 .0784 -.997 18.9 20.9)"/>
      <use xlink:href="#f1" transform="rotate(160 15.3 13.2)"/>
      <use xlink:href="#f1" transform="rotate(167 15.9 13.5)"/>
      <use xlink:href="#f1" transform="matrix(.982 .188 .188 -.982 19.4 24.8)"/>
      <use xlink:href="#f1" transform="rotate(173 16.5 14.6)"/>
      <use xlink:href="#f1" transform="rotate(181 17.2 14.4)"/>
      <use xlink:href="#f1" transform="matrix(.906 .423 .423 -.906 18.9 27.5)"/>
      <use xlink:href="#f1" transform="rotate(182 17.4 15.9)"/>
      <use xlink:href="#f1" transform="rotate(183 17.3 16.7)"/>
      <use xlink:href="#f1" transform="matrix(.773 .635 .635 -.773 18.1 29.7)"/>
      <use xlink:href="#f1" transform="rotate(200 18.7 16.5)"/>
      <use xlink:href="#f1" transform="rotate(208 19.5 16.3)"/>
      <use xlink:href="#f1" transform="matrix(.473 .881 .881 -.473 16.5 29.4)"/>
      <use xlink:href="#f1" transform="rotate(223 20.4 16.2)"/>
      <use xlink:href="#f1" transform="rotate(237 22.2 15.5)"/>
      <use xlink:href="#f1" transform="rotate(247 23.4 15.2)"/>
      <use xlink:href="#f1" transform="matrix(-.112 .994 .994 .112 14.8 27.5)"/>
      <use xlink:href="#f1" transform="rotate(258 24.1 15.4)"/>
      <use xlink:href="#f1" transform="rotate(267 25.2 15.3)"/>
      <use xlink:href="#f1" transform="matrix(-.613 .790 .790 .613 14.8 26.2)"/>
      <use xlink:href="#f1" transform="rotate(-72 29.9 15.1)"/>
      <use xlink:href="#f1" transform="rotate(-60.2 34.1 14.9)"/>
      <use xlink:href="#f1" transform="matrix(-.868 .496 .496 .868 14.4 25.2)"/>
      <use xlink:href="#f1" transform="rotate(-50.2 37 14.8)"/>
      <use xlink:href="#f1" transform="rotate(-41.5 42.1 14.7)"/>
      <use xlink:href="#f1" transform="matrix(-.951 .308 .308 .951 13.1 22.6)"/>
      <use xlink:href="#f1" transform="rotate(-40.5 38.8 16.7)"/>
      <use xlink:href="#f1" transform="rotate(-39.7 37.1 17.1)"/>
      <use xlink:href="#f1" transform="matrix(-.998 .0616 .0616 .998 12.2 20.5)"/>
      <use xlink:href="#f1" transform="rotate(-23.4 53.6 18.7)"/>
      <use xlink:href="#f1" transform="matrix(-.996 -.0879 -.0879 .996 12 18.9)"/>
      <use xlink:href="#f1" transform="rotate(-18.6 56.4 20.3)"/>
      <use xlink:href="#f1" transform="matrix(-.975 -.222 -.222 .975 12.1 16.8)"/>
      <use xlink:href="#f1" transform="rotate(-5.04 160 41)"/>
      <use xlink:href="#f1" transform="matrix(-.948 -.319 -.319 .948 12.5 14.4)"/>
      <use xlink:href="#f1" transform="rotate(-12.8 52.2 19.7)"/>
      <use xlink:href="#f1" transform="matrix(-.954 -.298 -.298 .954 12.6 11.4)"/>
      <use xlink:href="#f1" transform="rotate(-6.3 73.4 27.6)"/>
      <use xlink:href="#f1" transform="matrix(-.905 -.425 -.425 .905 13.1 9.32)"/>
      <use xlink:href="#f1" transform="rotate(-1.64 158 62.9)"/>
      <use xlink:href="#f1" transform="matrix(-.927 -.375 -.375 .927 13.9 5.96)"/>
      <use xlink:href="#f1" transform="rotate(-1.16 101 27.8)"/>
      <use xlink:href="#f1" transform="rotate(203 7.16 3.03)"/>
      <g id="f1" transform="matrix(.0592 .0107 -.0107 .0592 -11.4 -12.6)">
        <path stroke-linejoin="round" d="m286 204s3.88-2.7 5.77-2.07c-9.01 6.86 7.59 15.7 31.8 5.42 3.77 9.94 2.31 12.8 9.14 22.2 6.45 8.87 18.4 1.77 18.4-0.642 0.36 0.84 0.24 4.39 6.85 1.07 3.3 3.09 6.49 1.26 6.47-2.87 2.28 2.4 13.7 0.479 8.27-9.22 2.52 1.92 13.1 3.23 0.719-5.03 2.99-1.8 11.3-10.8 32.8 8.98" stroke-opacity=".118" stroke="#030102" stroke-linecap="round" stroke-width="3.44" fill="none"/>
        <path d="m325 177c-4.87-0.0113-9.59 1.72-14.1 3.46-4.56-2.83-9.46-0.513-13.1 2.63-3.97 3.57-8.39 6.88-11.4 11-2.47 1.53-7.06-2.9-5.9 2.02-2.63 5.15 6.68 0.357 3.44 4.86 0.544 6.13 5.34-0.778 8.25 1.2-2.83 2.72-2.52 7.47 2.29 7.44 4.93 3.83 10.8 0.69 16 1.9 5.34-0.887 9.58-0.919 13.6-4.68 0.1 1.32 0.364 2.61 0.676 3.71 3.13-3.53-0.634 5.94 2.48 7.02 3.41 0.389 0.671 6.42 4.2 5.12 0.329 4 4.1 11.4 8.67 10.1 3.58-0.866 6.67 1.44 9.5-0.403 1.08-0.916 2.03-5.96 2.91-2.78 1.2 4.53 5.93-0.103 5.96-1.28 1.57 4.64 7.27 3.42 5.58-1.69 1.27-1.82 7.11 4.68 9.04-0.121 4.53-2.62 1.32-5.8-0.284-8.47 2.84 3.86 12.2 1.24 8.39-3.7-2.42-0.28-4.54-0.3-5.55-3.24 2.66 0.004 5.37-3.75 8.63-2.88 7.03 1.69 13.3 6.18 18.5 11 3.89 6.56 7.1-0.475 6.91-5 2.73 1.22 7.97 4.25 5.95-1.72-2.3-1.89-3.78-1.82 0.045-1.25 5.6 0.353-3.25-7.18 0.857-5.33 5.29 2.08 3.97-3.71 0.153-4.61-0.623-1.27-7.28-2.83-4.96-2.69 3.02 0.675 8.92-2.59 4.44-5.08-4.07 0.441 0.559-2.72-2.86-4.55-4.84-1.22-9.33-4.51-14.6-5.03-1.15-2.76-4.87-4.08-8.32-3.54-13.9-0.581-27.6 5.9-36.6 16.4-2.75 0.902-5.15 3.12-6.44 5.96-1 1.2-2.41 1.85-3.66 1.9 0.529-0.504 0.737-1.42 0.206-2.8 0.225-4.62-0.805-9.25-2.73-13.4-2.65-5.07-7.77-8.85-12.8-11.2-1.14-0.209-2.27-0.304-3.4-0.307z" fill="#d4a4bb"/>
        <path d="m365 200c-2.54-2.56-6.13-4.58-9.83-4.11-1.87 0.646 1.03 3.12 2.48 2.55 1.71 0.0758-2.53 0.454-3.28 1.07-1.44 0.205-2 1.63-0.085 1.45 3.45 0.211 7.01-0.331 10.4 0.722 0.828 0.704-2.34 0.417-3.22 0.581-3.93 0.24-7.92 0.116-11.8 0.96-1.56 0.804 1.71 1.23 2.51 1.42 2.03 0.406-1.61 0.251-2.33 0.156-1.64-0.192-4.97-0.446-4.52 2.11-1.46-0.427-3.1-2.6-4.95-1.75-1.14-1.99-3.91-1.54-5.83-2.17 0.926-0.87 3.29-1.69 4.08-1.6-2.05-0.335-3.93-1.36-5.83-2.16 1.04-0.797 2.36 1.41 3.5-0.126 1.4-0.854 1.96-2.5 3.26-3.29 0.351-0.659 1.12-1.35-0.0169-0.533-2.38 0.236-4.68-0.762-6.98-1.23-1.61-0.574-3.09-1.43-4.54-2.32 0.832-0.963 4.57 0.135 1.88-0.628-2.53-0.767-5.16-1.73-7.51-2.7 3.65 0.52 7.26 1.37 10.8 2.32-3.94-1.63-7.89-3.25-11.8-5.05 4.83 0.489 9.29 2.58 13.8 4.18l-7.89-5.31c3.09 0.258 5.52 2.47 7.99 4.14 0.765 0.587 3.27 2.49 2.26 0.373-0.854-1.32 0.241-2.67 1.33-1.12 2.71 3.29 4.1 7.56 4.5 11.8 0.143 0.907-0.394 2.66 0.952 1.47 3.17-1.65 6.01-3.9 9.27-5.36 3.96-1.32 8.14-1.61 12.2-2.34 1.3-0.646 3.8-1.73 4.49-2.08-0.729 0.552-3.22 1.88-2.35 2.67 1.33 0.155 4.42-0.95 4.64-0.809-2.82 1.59-5.67 3.14-8.53 4.66 3.09-0.453 6.1-1.39 9.13-2.17-2.87 1.03-5.82 1.85-8.61 3.09 1.64 1.63 4.03 0.706 6.03 0.501-0.881 0.295-3.1 1.27-4.59 1.37-0.455-0.0286-0.785-0.376-1.08-0.681z" fill-opacity=".626" fill="#d32c5a"/>
      </g>
    </symbol>

    <symbol id="S_BODY" viewBox="0 0 81.851 92.169">
      <path fill="#21120c" d="M45.2 2.39c-3.71.368-4.95 2.35-8.1 4.28-2.87 1.75-4.74 19.8-9.8 24.4-7.91 7.28 32 19.7 33.1 10.3.108-3.1 1.82-5.4 1.93-8.21.09-2.4.126-5.81 4.25-7.94-.96-1.96 1.43-3.98.507-7.24-.542-1.91-2.53-3.22-3-5.15-1.5-5.57-1.86-10.3-8.3-12.4-3.06-.995-7.91-.275-10.6 1.96z"/>
      <g stroke-linejoin="round" stroke="#fff" stroke-linecap="round" fill="none">
        <path stroke-width="1.06" d="M44.237 3.087s.42-.187 1.07-.14c.654-.794 4.33-2.4 8.95-2.17" stroke-opacity=".039"/>
        <path stroke-width=".635" d="M61.137 9.487c.093.654 1.17 1.54 1.17 1.54s-.047 1.17.187 2.01c.787.624 5.24 7.61 2.66 11.1" stroke-opacity=".047"/>
        <path stroke-width=".635" d="M62.937 16.657c.05-.05 2.49 3.44 1.35 7.8" stroke-opacity=".118"/>
        <path stroke-width=".794" d="M61.837 35.757c-.047.187-2.92 3.02-2.92 4.38" stroke-opacity=".137"/>
        <g stroke-opacity=".039">
          <path stroke-width=".794" d="M33.337 23.657c-.374 1.31-.374 2.06-.093 3.46-.84.794-1.73 1.73-1.82 2.8"/>
          <path stroke-width=".873" d="M43.637 6.737c-.84.607-.514 2.66 2.01 3.69m13.8-4.94s-2.8-1.87-7.29-1.49"/>
          <path stroke-width="1.06" d="M43.337 5.197c.6-.5-3.3 2.68-5.4 2.55m19.4-2.15s-2.15 1.42-4.02.622c-2.47-.38-6.13.42-7.46.75m10.8-5.07s-5.08.67-6.2.53"/>
          <path stroke-width=".529" d="M61.537 5.987c-.1-.23-1.4-1.21-2.8-1.63"/>
          <path stroke-width=".873" d="M44.837 6.277c.4-.94 3.8-2.67 6-2.53m9.3.13c0-.187-1.19-.79-2.78-1.07m-9.4 5.09s-.84.467-1.77.234"/>
          <path stroke-width=".794" d="M31.837 25.457c0 .187-.56.514-.467 1.54-.747 1.03-2.52 3.46-2.66 4.53"/>
          <path stroke-width=".873" d="M62.937 24.157c-.093.234 0 1.92-.187 2.85-.187.934-2.2.747-2.2 4.76-.467-2.57-.934-3.83-.42-5.23"/>
          <path stroke-width=".952" d="M60.937 12.057c-.047-.234-5.28-.747-7.29.047 2.29.514 5.09.98 6.4 2.52"/>
          <path stroke-width=".873" d="M56.637 9.027s.467-.234.7-.654-.42-1.26 1.17-1.59"/>
          <path stroke-width="1.06" d="M44.537 5.097c.1-.18 1.7-1.95 4.8-2.51m-6.4 1.48c-.7.29-2.9 2.02-4.1 2.39"/>
        </g>
      </g>
      <ellipse fill-opacity=".258" rx=".503" ry=".311" cy="8.2" cx="47" fill="#fff"/>
      <path fill="#a16745" d="M27.1 1.34c-.308-.008-.613.003-.913.037-3.53.407-6.4 2.48-9.32 4.19-5.3 3.06-11.1 5.89-14.8 10.7-1.29 1.71-2.55 3.75-1.95 6.14 6.41 13.2 20.5 17.4 22.2 20.1 4.74 9-1.67 11.5 2.86 20.1-.226 5.05 3.24 8.7 2.88 9.93-.703 2.43-2.95 2.75-4.16 7.58-1.53 6.13 6.4 12.8 18.7 12 13.9-.89 23.3-9.18 21-12-5.87-7.47-8.95-6.19-9.8-8.23-1.32-3.16 2.18-7.63 2.47-18.1 6.06 7.81 21.5 12.8 24.5 8.27 3.93-5.88-4.27-27.7-7.1-31.1-2.04-2.41-7.15-5.75-7.15-5.75s-2.68 1.1-3.9 4.1c-.614 1.51.06 3.93-.92 6.53 1.14.474 2.14.08 5.57 2.06 1.33.77 3.69 11.3 3.22 12.2-4.78-2.45-9.59-8.05-10.1-8.93-.125 1.63-1.2-.143-1.41-.607-1.2 1.48-2.71 1.91-4.42.93-3.6-2.08-4.64-2.6-7.07-2.81.137-1 .367-1.78.843-2.01 2.02-.968 6.69-3.83 7.49-4.97 1.01-1.43 2.65-6.67 2.95-7.87.31-1.23-.12-2.21 0-3 .11-.72.75-4.34.6-4.99-1.15-.85-4.79-1.4-7.49-1.95s-7.59-3.15-8.49-4.34c-.75.8-6.71 8.75-7.64 15.1-.26 1.77 0 3.3 1.8 6.49.16 1.81.076 4.46-.028 6.17-3.38-.575-6.02-1.09-6.02-1.09-2.68.863-5.11-5.09-3.68-5.52-2.71.107-11.2-7.93-13.6-8.98-.38-.16-.506-.974-.178-1.22 5.07-3.82 7.52-8.11 11.5-11.5 1.62-1.36 4.06 1.39 6.17 1.42 1.17.013 3.31-.036 3.87-1.06.94-1.73 3.97-4.55 6.57-5.98-3.7-1-5.8-.29-8.6-.68-2.1-.3-4.4-1.29-6.5-1.34z"/>
      <path fill="#702405" d="M50.1 30.4c.057-.177-.622-.503-1.03-.55-.353-.042-1.05-.184-2.07-.462-1.04-.283-1.79-.87-2.17-.972-.518-.14-1.72-.334-1.96-.04-.2.237.183.57.558.95.153.153.073 1.38 2.24 2.28 1.5.618 2.48.452 2.82-.042.497-.723 1.54-.905 1.62-1.16z"/>
      <ellipse rx=".975" ry=".401" cy="76.7" cx="35.8" fill="#7f4810"/>
      <ellipse fill-opacity=".35" rx=".975" ry=".401" cy="76.7" cx="35.8" fill="#693c14"/>
      <path stroke-linejoin="round" d="M37.4 77.2c.347.91-.866 1.43-1.21 1.43m-2.5-1.7c-.217 1.08.736 1.47.736 1.47" stroke-opacity=".063" stroke="#fff" stroke-linecap="round" stroke-width=".926" fill="none"/>
      <path fill-opacity=".09" fill="#704b31" d="M53.8 72.1c1.04 1.82 2.3 1.99 4.03 3.16-3.23-.006-6.5 3.17-8.49 2.51-1.44-.48-2.12-1.34-2.69-2.77 3.51 1.33 5.82-1.28 7.15-2.9z"/>
      <g stroke-linejoin="round" stroke-linecap="round" fill="none">
        <path d="M36.337 48.257c3.2 2.73 4.53 9.23.395 12.2m9.2-10.4c-7.11 1.66-5.57 11-2.63 12.5" stroke-opacity=".09" stroke="#704b31" stroke-width="1.85"/>
        <g stroke="#fff">
          <path stroke-width=".926" d="M74.037 36.657s1.73 3.73 2.17 6.32m1.2 5.5c.433 2.34.78 5.03.693 6.84" stroke-opacity=".024"/>
          <path stroke-width="1.4" d="M8.747 24.657c.433.173 7.88 4.68 13.3 10.1" stroke-opacity=".02"/>
          <path stroke-width=".926" d="M23.137 5.937c4.07-.866 4.42.173 4.42.173s2.69 1.13 4.07 1.65m35.6 18.4c2.69 1.56 2.95 2.95 2.95 2.95s1.65.173 2.25.693m-1.1 1.5c.693-.52 1.39-.173 2.08.433" stroke-opacity=".024"/>
        </g>
      </g>
      <path fill-opacity=".031" fill="#fff" d="M25.8 1.84c-.01 0-.02 0-.03.002-4.75.737-4.79 2.91-6.27 3.54-5.76 2.46-9.22 4.82-11.5 6.61-2.31 1.8-3.25 3.03-3.25 3.03-.392.494.366 1.07.737.56 1.22-.442 1.94-1.3 2.94-1.9 4.03-2.45 9.22-4.73 12.3-6.99 1.29-1.15 2.21-2.59 3.17-3.43.49-.425 1.25-.414 1.99-.488.59-.062.533-.94-.06-.923z"/>
      <g stroke-linejoin="round" stroke-linecap="round" fill="none">
        <path d="M65.637 34.057c1.82-1.21 5.46.347 5.46.347m-46.1 3.1s1.03 6.13.044 10.3" stroke-opacity=".024" stroke="#fff" stroke-width=".926"/>
        <g stroke-opacity=".09" stroke="#704b31">
          <path stroke-width="2.12" d="M24.037 8.597s-7.18 8.71-11.7 11.1"/>
          <path stroke-width="1.77" d="M60.337 42.457c3.11 3.77 4.94 5.47 9.52 8.28"/>
          <path stroke-width="1.85" d="M57.537 53.457c1.49 2.17 8.48 7.37 15.7 8.85"/>
        </g>
        <path d="M25.637 36.857c.098.325 2.02 4.07 1.91 3.77" stroke-opacity=".024" stroke="#fff" stroke-width=".926"/>
      </g>
      <g fill="#704b31">
        <path fill-opacity=".09" d="M11.037 24.057c.97-.495 1.92-1.03 2.29-2.08 1.86.784 7.86 5.72 9.2 7.33s3.63 2.58 3.63 2.58-1.13 2-2.44 1.88c-1.26-.63-4.87-3.56-6.25-4.84-1.31-1.22-4.65-4-6.44-4.86z"/>
        <path fill-opacity=".102" d="M64.137 33.957c.765-.967 1.53-2.05 4.15-1.93.12-.524.524-1.13 1.09-1.45-1.17.443-1.77.16-1.93-.443-.564-.12-1.59.175-2.58 1.21-.806.846-.725 2.62-.725 2.62zm-38.8-29.1c.483-.2.403-1.81 3.83-1.45 1.49.846 1.01 1.73.886 2.54-1-.73-2.6-1.37-4.7-1.09z"/>
      </g>
      <path d="M58.537 20.757s-.622-1.5-1.53-1.66c-.913-.165-3.05-.165-4.68.442s-.484.74-.21.7c.395-.05 1.2-.53 2.73-.55 1.59-.02 2.58.15 3.21.953.4.513.505.367.478.102zm-14.5-6.1c-.687-.246-1.23-.117-2.89.596-1.13.486-1.18 1.07-.32.848.628-.16 1.24-.87 2.62-.58.823.18 2.12.66 3.47 2.65.29.43.723.32.242-.47-.87-1.42-2.05-2.65-3.12-3.03zm12.7 10.6s.094-.5-.31-.95-1.66-1.52-2.53-1.59c-.877-.076-1.78.065-2.16.31-.378.245-.048.894.112 1.05.16.16 1.17.537 1.93.734.76.2 1.93.55 2.2.68.27.13.66-.09.75-.23zm-3.7-3.6s.8-.293 1.48-.107 1.54.666 2 1.16c.453.493.586.64.626.8s-.107.28-.24.132c-.133-.146-.746-.72-1.22-1-.48-.28-1.48-.745-1.89-.77-.413-.028-.626.012-.72.026-.092.014-.28-.132-.026-.24zm-7 0c.197-.23-.14-.8-.633-1.25-.493-.453-1.54-1.21-2.29-1.35-.746-.133-1.47.018-2.4.63-.452.296-.6.494-.553.727.04.165.74.634 1.38.794.64.16 1.32.17 1.75.236.43.067 1.23.473 1.84.486.6 0 .8-.2.9-.3zm-4-4c-.236.043-1.52.56-1.32.698.154.104 1.3-.5 2.16-.37.253.04.594-.006.948.11.453.15.58.296.66.376s.267.14.227-.05c-.147-.26-.522-.62-.682-.65-.548-.12-1.5-.19-2-.1z" fill="#1c0801"/>
      <path fill="#f0f0f0" d="M48.7 30.5s-.226-.28-.576-.292c-1.32-.045-2.15-.17-2.98-.954-.314-.228-1.04-.215-1.04-.215.46.16.614 1.09 3.01 1.45.68.1 1.59 0 1.59 0z"/>
      <path d="M56.237 25.057s-.418-1.01-.96-1.29c.108.387-.282.76-.406.823.3.203.89.432 1.37.463zm-3.2-1.9s-.307.568-.136.878c-.37-.14-.59-.413-.79-.63.34-.263.67-.31.93-.248zm-7.9-2c-.092-.097-.19-.67-.863-1.06.125.732-.148.982-.444 1.1.8.284 1.21.32 1.31-.04zm-3.1-1.6c-.325 0-.95.338-1.35.586.248.434.98.77 1.37.763-.326-.47-.19-1.31-.022-1.35z" fill="#e3e3e3"/>
      <g stroke-linecap="round" fill="none">
        <path d="M37.937 38.657s.99 1.35 2.08 1.71c1.75.572 2.98.623 4.59.235" stroke-opacity=".031" stroke="#fff" stroke-width=".529"/>
        <path d="M38.337 31.857c.168.235 1.54 2.45 3.89 3.69s4.63.805 5 .704" stroke-opacity=".09" stroke="#704b31" stroke-width=".794"/>
        <path d="M48.337 31.657c-2.2.857-4.88-.712-5.19-2.27l-.826-.012" stroke-opacity=".035" stroke="#fff" stroke-width=".344"/>
        <path d="M49.737 32.457c.2-.067.704-.402 1.14-1.11" stroke-opacity=".09" stroke="#704b31" stroke-width=".609"/>
        <path d="M45.737 38.657s-3.15.268-4.9-.537" stroke-opacity=".09" stroke="#704b31" stroke-width=".9"/>
        <g stroke="#fff">
          <path stroke-width=".423" d="M36.837 23.457c0 .134-.796.288-.69 2.28.09 1.69.78 3.35 2.33 5.84" stroke-opacity=".024"/>
          <path stroke-width=".318" d="M50.537 30.057c-.7-.5-1.5-.9-2.5-.8" stroke-opacity=".039"/>
          <path stroke-width=".661" d="M47.037 35.457c1.23-.075 5.57-1.75 6.63-2.66 1.06-.905 3.66-3.94 4.67-10.5" stroke-opacity=".024"/>
        </g>
      </g>
      <g fill="#fff">
        <path fill-opacity=".024" d="M37.9 26.1c-.402.05-.704.628-.603 1.08s.402 2.11.905 2.84 1.13 1.78 1.91 2.21c.78.427 1.16 1.11 1.51 1.43-.128.045 1.56 1.62 4.02 1.66 1.33.024.503-.267.21-.293-.588-.05-1.15-.046-2.52-.788-1.82-.99-1.56-1.31-1.81-1.76-.25-.46-2.49-1.86-2.94-3.72-.452-1.86-.277-2.39-.68-2.66z"/>
        <ellipse fill-opacity=".251" rx=".516" ry=".338" cy="24.7" cx="46.7"/>
        <ellipse fill-opacity=".051" rx=".33" ry=".283" cy="22.2" cx="47.4"/>
      </g>
      <path stroke-linejoin="round" d="M42.8 27.9c.464-.16 2.23.145 2.91.507" stroke-opacity=".039" stroke="#fff" stroke-linecap="round" stroke-width=".318" fill="none"/>
      <path stroke-linejoin="round" d="M45.6 24.5c-.232.232-.272.8-.043 1.12.27.376.82.94 1.91 1.14 1.05.195 1.77-.063 2.01-.348.326-.38.13-.797-.044-1" stroke-opacity=".047" stroke="#fff" stroke-linecap="round" stroke-width=".529" fill="none"/>
    </symbol>

    <symbol id="S_SKIRT" viewBox="0 0 89.395 78.85">
      <path d="M55.8 2.44c-10.4 7.89-25.1 10.7-36.7 4.29-4.65-3.66-3.99 4.6-5.85 6.93-.237 4.26-4.57 5.97-5.82 9.73-.812.57-4.4 6.05-.822 3.93 1.09-1.83 3.9-1.77 1.45.18-2.37.852-2.6 4.07-.07 1.51 3.12-1.45-1.72 3.18-2.74 3.79-1.99 3.49 4.42-2.81 4.23-1.73-1.27 3.37-6.03 4.24-7.11 7.82-.69 3.35 3.07-2.95 2.46.47 1.36 3.65-2.66 7.98-.86 11 1.51-.344.094-6.41 1.92-4.87 1.44 2.95-2.09 7.31-.962 8.88 1.52-1.01 2.05-6.54 2.63-2.06 1.85.907-1.71 6.64.902 4.56-.024-2.32 2.15-2.93 1.1-.314-.764 2.27 1.6 3.86 1.23.726 1.76-3.24-.253 7.1 1.86 2.79 1-4.43-.205 1.83.447 2.97 1.19-1.17 1.7-3.64.917-.636-1.1 1.99.547 3.78 1.14.857.33 3.47 1.14 6.28 1.98 9.33.047-1.74 1-4.26 2.8-1.51-.51 1.19-.136 5.41 1.09 2.38-1.37-2.7 1.98-4.2 3.28-1.35-.816-2.37 1.39-5.09 4.09-3.11 1.26.926.848 6.6 2.06 3.04-.08-5.45 1.27 3.52 2.87 1.69-1.11-1.72-.5-3.93 1.21-1.4.752 1.71 2.19 3.85 1.48.543-.786-2.06 2.67-.643 1.07.786 1.27 3.55 1.43-3.91 4.27-.997.793 1.45 2.08 2.62 1.7.073-.436-1.67 1.36 4.9 1.85 1.05-2.28-3.21 2.86-2.43 1.73.455 2.57-.18-1.37-4.8 2.25-4.22 3.48-3.72 2.91 5.08 5.04 3.32-.902-1.76-1.28-4.01 1.17-1.95 2.35.546 5.73.38 7 1.67-1.05-1.58.97-5.22 1.95-2.01 2.18 2.66-.5-3.06.422-4.13 1.86-2.99-.382-6.99 1.54-9.41 4.01-2.31 1.69 4.44 4.29 3.19-.284-1.21-2.28-5.6.79-4.39-.165 2.64 4.73 3.6 1.5.767-1.39-3.61 1.76-.105 2.93.437 1.42-1.5-3.96-2.84-.035-4.03 3.28-2.16 1.95 4.88 4.08 2.37-.88-1.52-2.18-4.84.33-1.77 1.01 2.56 3.6.248.8-.663-3.75-3.29 8.33-4.33 2.77-7.69-1.14-1.05-2.56-4.03-.1-1.81.59 2.15 4.75 2.28 1.8.157-3.9-2.11-6.86-5.09-8.39-9.08-1.23-2.56-4.04-6.05-4.28-8.04 1.55.1 5.69 5.47 4.93 2.12-2.15-2.56-7.01-2.57-7.76-6.24 1 1.56 5.87 3.62 2.53.78-6.03-3.87-8.17-10.7-12.8-15.8-1.22-1.32-3.59-5.39-3.59-5.39zM11 20.14c.558 2.3-4.61 4.48-1.19 1.22.37-.43.766-.838 1.19-1.22zm-1.25 3.69c-2.73 2.26-2.88 1.43 0 0z" fill="#ae975d"/>
      <g fill="#b29b6c">
        <path d="M40.9 6.11c2.15-.17 2.24 1.28 2.24 1.28l.384 4.44-4.38.608-.285-4.41s.23-1.77 2.04-1.92z"/>
        <path d="M31.5 6.93c2.2-.03 2.2 1.42 2.2 1.42l.1 4.46-4.5.324v-4.39s.353-1.75 2.2-1.78z"/>
        <path d="M36.4 6.73c2.38-.03 2.38 1.42 2.38 1.42l.107 4.46-4.86.324v-4.39s.383-1.75 2.38-1.78z"/>
        <path d="M27.2 6.57c2.24.22 2.03 1.66 2.03 1.66l-.543 4.43-4.62-.192.638-4.38s.613-1.69 2.49-1.52z"/>
        <path d="M23 5.88c2.02.343 1.74 1.77 1.74 1.77l-.78 4.39-4.19-.444.863-4.34s.666-1.66 2.37-1.38z"/>
        <path d="M19.5 4.56c1.77.613 1.33 1.98 1.33 1.98l-1.28 4.24-3.7-1.01 1.35-4.18s.817-1.55 2.3-1.04z"/>
        <path d="M16.6 2.31c1.52.75 1.01 2.08 1.01 2.08L16.1 8.52l-3.2-1.29 1.57-4.05s.863-1.48 2.14-.86z"/>
        <path d="M45 5.4c2.24-.302 2.42 1.13 2.42 1.13l.657 4.41-4.55.88-.55-4.38s.142-1.78 2.02-2.04z"/>
        <path d="M48.4 4.11c1.99-.718 2.49.643 2.49.643l1.62 4.16-3.98 1.72-1.52-4.15s-.28-1.76 1.39-2.37z"/>
        <path d="M52 2.25c1.7-.744 2.35.586 2.35.586l2.07 4.06-3.37 1.76-1.98-4.06s-.506-1.72.92-2.35z"/>
        <path d="M54.5.36c1.05-.94 1.83.26 1.83.26l2.46 3.65-2 2.14-2.39-3.66s-.776-1.6.098-2.39z"/>
      </g>
      <g fill-opacity=".329" stroke="#ad945e" stroke-linecap="round" stroke-width=".661" fill="#35ff00">
        <path d="M41 7.89l.26 4.41"/>
        <path d="M31.5 8.72l-.026 4.42"/>
        <path d="M36.4 8.52l-.03 4.42"/>
        <path d="M27 8.35l-.666 4.38"/>
        <path d="M22.7 7.63L21.8 12"/>
        <path d="M19 6.25l-1.37 4.17"/>
        <path d="M16 3.96l-1.59 4.05"/>
        <path d="M45.3 7.17l.525 4.39"/>
        <path d="M49.1 5.79l1.5 4.17"/>
        <path d="M52.8 3.89l1.96 4.07"/>
        <path d="M55.5 1.84l2.38 3.68"/>
      </g>
      <g fill="none">
        <g stroke-linejoin="round" stroke="#a48c54" stroke-linecap="square" stroke-width=".529">
          <path d="M14.5 3.56c.348-.58 1.32.437 1.51.785.66-.193 1.32.696 1.32 1.12.7-.22 1.51.63 1.55 1.11.62-.018 1.51.504 1.76 1.07.748-.246 1.37-.31 2.03.378.848-.277 1.85.767 1.85.767s1.58-.618 2.36.387c1-.387 1.99-.925 2.44-.076.803-.31 2.03-.41 2.21.01.525-.24 1.74-.573 2.36.046.618-.425 1.73-1.09 2.54-.24.92-.7 2.04-.736 2.43-.272.657-.695 1.78-.617 2.24-.076.502-.696 1.7-.89 2.16-.425.31-.734 1.66-.696 2.05-.387.155-.58 1.39-1.12 2.01-.81.27-.62 1.25-1.13 1.74-.76.265-.633 1.16-1.47 2.1-1.23.162-.88 1.46-.715 1.69-.444.116-.734 1.12-1.72 1.68-1.45.143-.73.673-.99 1.18-.756.193-.773.57-1.14 1.04-1.03"/>
          <path d="M14.2 4.57c.348-.58 1.2.486 1.4.834.66-.193 1.53.628 1.53 1.05.626-.025 1.71.898 1.75 1.34.62-.018 1.22.348 1.47.913.748-.246 1.56-.223 2.21.466.848-.277 1.85.767 1.85.767s1.58-.618 2.36.387c1-.387 1.99-.925 2.44-.076.803-.31 2.03-.41 2.21.01.525-.24 1.65-.582 2.26.036.618-.425 1.83-1.08 2.64-.23.92-.7 2.27-.736 2.65-.272.657-.695 1.75-.725 2.21-.184.502-.696 1.59-.83 2.06-.367.31-.735 1.57-.648 1.96-.34.155-.58 1.8-1.17 2.42-.86.27-.62 1.39-1.29 1.89-.916.265-.632 1.11-1.44 2.05-1.19.162-.88 1.69-.938 1.92-.668.116-.736 1.11-1.61 1.67-1.33.143-.73.576-1.18 1.08-.95.193-.776.62-1.03 1.08-.92"/>
        </g>
        <g stroke="#ad945e" stroke-linecap="square" stroke-width="1.06">
          <path d="M30.9 14.1c-1.01 9.04-3.61 12.2-3.75 21.3.47 5.13 1.22 10.2 1.36 15.4M44.2 74.1c-1.95-5.42-1.89-11.3-3.4-16.8-1.18-8.5-.275-17.1-1.77-25.6-.303-2.42-.65-4.82-.96-7.24M34.9 13.7c-1.51 15.8-4.73 26.7-3.82 42.6.01.96.013 1.92.002 2.88M17.4 75c1.38-8.81-2.35-17.3-2.85-25.9.302-5.53 2.02-10.9 2.73-16.3 1.43-7.12 3.3-14.2 3.77-21.5"/>
          <path d="M23.6 12.1c-1.82 11.4-3.32 17.4-5.57 28.7-.713 5.63-.725 11.4.85 16.9.635 4.58 1.04 9.22.78 13.9m-6.56-.2c1.24-6.34 2.77-13.3-.2-19.4-2.19-7.2 2.24-14.1 2.44-21.3.29-6.67-1.23-13.4.528-20"/>
          <path d="M17.5 11.3c-4.19 7.71.188 11.3-.625 19.6-.564 6.33-2.8 12.6-1.42 19 .707 5.47 1.9 11.3.052 16.7M59.7 72.1c-4.7-7.64-9.65-15.2-12.5-23.8-2.88-7.3-5.8-14.6-7.31-22.4M79.1 57.1C72.5 50.66 65.7 44 61.4 35.7c-3.11-7.84-2.09-17.1-7.56-24"/>
          <path d="M49 10.7c4.08 4.91 6.54 11 7.17 17.4 1.17 6.2 2.67 12.9 7.61 17.3 3.7 4.08 7.28 8.33 11.6 11.8M14.2 9.15c-1 6.65-1.4 13.6-3.8 19.8-1.7 1.9-4.76 1.2-6.35 3.2"/>
          <path d="M6.07 26.7c3.86-1.44 8.11-3.82 8.21-8.48 1.17-4.47.878-4.89 1.44-9.49"/>
          <path d="M5.13 56c.42-16.1 3.84-31 8.36-46.4.703-1.9 1.13-1.83 1.13-1.83M31.2 14.6c.704 10.4 1.9 15.4 3.97 25.6 1.16 7.71 2.6 15.4 4.41 23l-.006.72"/>
          <path d="M31.4 69.9c2.22-5.6 2.99-12 .85-17.7-1.62-8.37-3.47-16.9-3.11-25.4 1.3-6.54.106-6.45 2.62-12.6M85.9 51.6c-2.02-2.52-4.22-4.94-6.82-6.88m-7.58-.12c2.43 2.16 4.98 4.24 6.92 6.88m.18-12.68c-2.75-.647-5.18-2.41-6.82-4.69m8.42 5.19c-2.93-1.25-5.95-2.44-8.51-4.39"/>
          <path d="M37.1 75.2c-10.3-10.7-16.9-25.1-17.5-40-.127-2.2-.178-4.4-.194-6.6"/>
          <path d="M16.6 27.8c-.35 7.38-.874 15.1 2.28 22 2.17 6.86 4.24 14.1 9.4 19.4 1.23 1.51 2.48 3.01 3.84 4.41"/>
          <path d="M20.2 76.5c.504-10.1 1.53-20.3.53-30.4-.102-1.68-.245-3.37-.53-5.03"/>
          <path d="M20.7 37.5c.562 10.9 1.57 21.8.29 32.6-.126 1.84-.263 3.68-.488 5.51M37.3 73.7c.11-9.4.176-19.7-5.82-27.6-3.44-4.99-6.81-10.4-7.14-16.6-1.3-7.68-3.48-9.19-3.37-17M62.6 71C61 65.5 60 59.6 57.3 54.5c-6.2-6.9-13.3-13.2-18-21.3-1.9-5.8-2.9-11.9-4.5-17.8m47.7 35.8c-6.11-8.43-16.9-12.3-22.1-21.5m21.2 19.6c-8.4-6.3-17-12.9-22.7-21.9"/>
          <path d="M62 73.3c-2.6-7.83-6.74-15.2-12.4-21.2-2.27-2.86-4.51-5.76-6.32-8.93"/>
          <path d="M56.7 75c-3.77-16.6-8.57-32.9-14.6-48.8-.398-.977-.81-1.95-1.24-2.91M29 78c2.32-9.41.376-19.2-3.29-28-2.45-6.55-3.48-13.6-4.22-20.5"/>
          <path d="M27.6 73.9c1.91-10.4 6.24-20.1 7.82-30.6 2.01-11.1 2.05-18.3.913-29.5M50 11.6c.59 7.88.123 16.1 2.74 23.6 2.59 7.04 6.37 13.6 10.4 19.9 1.34 2.58 2.64 5.23 3.18 8.11M58.2 60.3c-1.38-5.28-2.69-10.8-6.24-15.1-4.55-7.01-9.36-14.4-9.76-23.1-.515-3.94-1.1-7.95-.52-11.9M13.7 29.6c-.536 6.46-1.76 12.8-2.52 19.3.078 4.72 1.35 9.38 3.51 13.6m44.41-45c4.09 6.47 7.37 13.4 11.4 19.9 2.78 5.05 8.71 5.75 12.9 8.91 1.65 1.45 3.06 3.15 4.78 4.51"/>
          <path d="M51 11.4c4.33 5.29 2.97 7.32 5.68 13.5 2.73 4.85 8.2 6.58 13 8.58.715.38 1.4.843 1.94 1.46"/>
          <path d="M61.8 18.8c2.54 3.84 8.37 7.27 6.99 12.4-.465 1.47-1.19 2.84-1.75 4.28M39.7 77.8c1.11-3.77 1.74-7.76 1.09-11.7m11.41 11c-1.69-2.66-2.4-5.8-2.87-8.88"/>
          <path d="M88.7 48.8c-6.31-4.65-12.6-9.36-18.8-14.2-4.31-3.66-8.54-7.82-10.5-13.2m-36 53.1c4.04-3.99 2.47-10.2 2.96-15.2.03-2.78.045-5.6-.68-8.3M11 64.7c.224-4.42.547-8.84.593-13.3M4.18 44.8c-3.14-4.5 1.79-9.15 4.62-12.4.745-.776 1.51-1.53 2.3-2.27M7.66 66.2c4.26-4.06-2.24-9.17-.213-13.9.446-7.25 2.61-14.2 4.87-21 .505-1.81.907-3.66.877-5.55M25.1 75.5c3.83-6.53 2.59-14.3 1.98-21.4M52.5 74.2c-.2-9.6-5.5-18-10.1-26l-.3-.4m-9.6 29.1c.103-1.96.2-3.95-.198-5.89M41.3 77.5c1.02-1.39 1.71-3.06 1.78-4.79M26.6 13.8c-1.18 5.03-1.37 6.71-.724 11.9m.324-12.3c-.81 5.4-.426 8.82-.335 14.3m.235-13.1c-1.03 5.72-2.77 6.19-2.73 12.1M24 42.3c.46-6.49.633-13 1.48-19.5m27.32 6.9c2.21 5.54 4.69 11 6.33 16.8m-1.03-.1c-1.27-6.49-3.71-12.8-6.43-18.8m24.63 6.2c.577-4.75-4.43-7.62-7.12-10.8m5.62 5.8c-3.93-2.86-8.93-5.56-10.6-10.4M77 35.7c-2.89-1.5-5.79-3.31-7.62-6.09m-.88-2.01c2.41 3.1 4.74 6.61 8.51 8.18"/>
          <path d="M46.4 71.1c-2.78-8.47-.452-17.4-1.36-26.1-1.19-5.41-3.74-10.4-5.32-15.7-2.55-6.79-5.2-8.72-6.83-15.8m7.41.8c3.85 10.9 5.95 16 10.2 26.8 1.71 5.41 2.76 11.1 2.2 16.8.2 4.62.636 9.26 1.72 13.8m19.38-9.8c-3.23-5.52-7.28-11.4-6.26-18.2.095-7.85-6.83-13-9.53-19.8-2.55-5.22-2.01-8.89-4.84-14"/>
          <path d="M52.3 11.6c6.34 6.05 1.77 8.65 5.08 16.3 2.46 5.85 6.5 11.1 7.13 17.6.99 5.42 1.63 11.3 5.02 15.9M57.9 5.95c2.97 6.02 2.77 8.35 6.97 13.6 2.17 1.25 4.87-.324 6.99 1.08"/>
          <path d="M69.8 21.6c-4.1-.176-8.88-1.13-10.4-5.53-2.48-3.89-2.13-3.18-4.06-7.38"/>
          <path d="M81.6 49.3c-4.71-13.5-11.1-26.5-18.8-38.5-1.83-3.28-1.73-2.64-4.67-5.01M68.9 65.7c-4.21-11.4-9.69-22.3-12.5-34.2-1.25-4.36-2.5-8.74-3.23-13.2m-8.77-4.1c3.62 11.1 6.57 22.4 11 33.1 3.2 6.52 6.11 13.2 9.56 19.6"/>
          <path d="M44.1 13.6c2.47 5.98 4.07 5.02 6.74 10.9 1.36 4.52 1.56 9.35.79 14M77.6 57.8c-1.56-4.14-3.21-8.24-4.6-12.4M51.2 60.8c-.322-3.41-3.77-5.13-6.28-6.83M49.8 71.6c-5.29-2.57-.657-9.41-4.03-13.3-2.63-6.76-6.8-12.7-11-18.5-1.03-1.56-1.98-3.21-2.52-5.01"/>
        </g>
        <g stroke="#b29b6c" stroke-linecap="square" stroke-width="1.06">
          <path d="M38.5 12.5c2.94 6.62 2.51 14.1 4.85 20.9 1.97 8.11 4.7 16.1 8.7 23.4 2.69 6.23 4.8 12.7 6.82 19.1"/>
          <path d="M38.1 11.1c3.06 13.4 6.53 26.8 11.1 39.7 2.42 5.61 4.7 11.3 7.03 16.9M58.6 4.56c3.6 1.99 7.52 4.69 8.18 8.91.822 7.78 5 13.2 8.94 18.6 2.04 3.89 6.46 5.49 8.66 9.17"/>
          <path d="M58.6 4.99c5.63 4.48 5.34 10.2 8.11 16.6 1.8 4.37 4.78 9.01 8.24 12.3 1.06.617 2.13 1.23 3.2 1.83M28.2 12.6c-2.08 4.32 1.15 7.44 4.91 10.4 3.78 4.34 7.33 9 9.24 14.5 5.46 12.4 8.31 25.9 14.8 37.9"/>
          <path d="M29.7 12.7c-1.61 5.8 2.94 10.6 6.44 14.6 4.32 4.32 4.3 11.4 6.7 16.8 3.17 7.89 6.85 15.2 9.84 23.1.712 1.64 1.51 3.24 2.34 4.82M22.7 11.8c-.882 8.89-1.44 16.8 3.38 24.8 2.83 4.74 1.57 10.6 4.17 15.3 3.03 4.88 4.7 10.3 6.52 15.7.308.797.645 1.58 1.03 2.35M27.2 12.9c-.686 6.26-.255 9.45.744 15.9 2.02 6.05 4.28 12.1 4.78 18.5 1.71 4.96 6.26 8.53 6.84 14l.657 2.21M14.3 7.22c-4.58 3.48-1.2 9.38-1.9 14.2-.144 5.84-1.68 11.2-5.06 16-2.05 3.34-3.03 9.2-2.86 13.7"/>
          <path d="M15.7 7.34c-4.07 3.55-.85 6.03-1.57 10.7.04 5.16-1.22 10.2-3.71 14.8-1.98 3.87-2.38 8.22-3.39 12.4M74.9 62.9c-4.01-2.84-6.11-7.33-7.92-11.7C63 45.59 59.46 39.6 57.43 33c-1.65-4.94-3.57-9.89-4.32-15.1-.068-2.51.22-5.2-1.05-7.49"/>
          <path d="M73.3 61.5c-4.9-3.28-5.84-9.54-8.91-14.2-4.74-9.12-9.56-18.4-11.6-28.6.303-3.86.367-5.69-1.5-9.1M11.2 33.9C9.26 38.93 6.61 44 7.15 49.6c-.243 5.19-.175 10.5.37 15.6l-.177.48"/>
          <path d="M6.96 67c1.82-4.95-.322-10.2-.233-15.3-.945-4.55 1.03-8.76 2.73-12.8.745-1.9 1.45-3.82 1.86-5.82M34.6 12.5c-.154 5.9-1.57 11.5-1.61 17.4.69 10.6 4.95 20.4 7.51 30.6l.094.61"/>
          <path d="M41.3 64.3c-2.04-11-5.67-21.5-8.53-32.3-1.29-6.09.525-12.8.494-18.9M18.6 10.6c.683 4.74-.976 8.8-.365 13.4 1.68 6.37 3.63 12.7 3.89 19.4 1.05 8.42 2.92 16.9 2.04 25.4"/>
          <path d="M25.2 69.1c1.1-5.46 1.88-11.2.002-16.6-1.5-6.17-2.61-12.4-2.91-18.8-.996-6.53-3.21-12.9-2.66-19.6.536-2.55-.918-.534.856-2.7m27.212-.1c1.67 8.64 3.69 19.4 6.57 27.7 1.76 5.98 7.23 19.7 9.86 22.4M42 10c.092 6.33 4.71 9.83 5.74 16 .583 2.17 1.03 4.38 1.2 6.62"/>
          <path d="M42.3 9.98c.367 5.17 2.45 17.8 5.34 22 3.37 4.34 3.95 9.74 4.12 15 .25 7.05 6.38 11.6 8.86 17.8"/>
          <path d="M61.1 66.3c-1.98-8.07-10.1-13.7-9.81-22.5.057-5.42-2.73-10-5.52-14.5-2.4-3.95-4.14-12.5-5.21-16.9M27.8 16.8c-4.47 1.27-9.27 6.81-5.02 11 2.7 4.11 6.12 7.65 9.38 11.3 1.61 5.24 1.97 10.7 2.76 16.1"/>
          <path d="M34.8 54.5c-.892-5.36-1.39-11-3.49-16-3.41-4.47-4.25-9.04-7.3-13.8-.273-3.35.903-9.64 1.46-12M51 69.1c-2.68-4.72-2.23-10.4-.823-15.4.842-5.21-.318-11.1-4.56-14.6-3.41-3.27-6.48-7-7.68-11.7-.73-1.88-1.45-3.77-1.87-5.75"/>
          <path d="M37.1 14.8c-.302 8.24 4.91 20 9.54 26.3 4.35 3.4 3.14 9.09 2.98 13.9-.142 3.68-1.89 7.5.317 10.9M13.8 6.65c-5.34 2.11-6.84 7.85-5.78 13 .63 6.2-1.21 12.4-4.51 17.6-1.45 2.72-3.1 5.58-2.98 8.77"/>
          <path d="M14 6.15c-4.06 3.34-4.41 7.95-4.12 13-.254 5.64-1.15 11.4-4.03 16.3-2.46 5.52-4.16 11.8-3.02 17.9M29 39.4c2.61 5.18 2.35 11 2.36 16.6.81 5.89 3.19 11.5 6.54 16.4m-24-44.1c-.558 8.52-3.52 16.9-2.35 25.5.55 2.97 1.72 5.82 3.44 8.3"/>
          <path d="M15.6 63c-2.99-4.83-5.99-10.4-4.51-16.3.605-5.6 1.14-11.2 2.53-16.7M55.8 7.15c4.03 3.47 5.82 5.28 6.49 10.8 1.36 5.13 5.06 9.24 9.81 11.5 3.98 3.91 6.27 9.62 10.8 11.2 1.38 1.79 1.29 4.23 2.55 6.08"/>
          <path d="M83.2 45.7c-2.74-5.2-7.82-8.8-10.6-14.4-4.37-4.02-11-6.36-12.5-12.8-1.38-5.21-1.21-7.12-6-10.1"/>
          <path d="M55.4 11c3.51 5.02 7.76 9.64 10.4 15.2 1.6 5.86 3.53 12.6 9.35 15.6 4.46 2.81 10.1 4.4 13 9.1"/>
          <path d="M87.3 49.9c-3.2-3.1-7.86-1.65-11.6-7.77-6.02-2.85-9.12-9.38-10.3-15.6-2.48-5.5-5.62-10.8-9.35-15.5"/>
          <path d="M49.6 10.1c5.4 4.8 10.8 7 14.4 13.4 2.01 5.73-1.35 11.9.928 17.6 1.44 5.83 3.19 11.7 6.46 16.8"/>
          <path d="M61.6 47.5c-1.34-5.22-2.71-11.3.742-16 3.25-4.27-.643-8.3-2.6-12-.852-1.45-1.78-2.87-2.89-4.14M35.5 12.4c.913 5.16 4.33 13.6 7.83 17.3 3.65 5.15 5.53 11.3 6.24 17.5 1.25 5.9 2.01 12 .88 18-.16 2.23-.24 4.51-.964 6.65M35.3 47.9c2.79-5.29 6.12-10.4 7.62-16.3M16.9 7.66c-.228 14.1.063 27.9.274 42 .243 7.01 1.97 13.8 3 20.7.042.527.067 1.06.07 1.58M23.4 74.3c1.13-7.11-2.39-13.7-2.81-20.7-.965-9.54-.862-19.2-.64-28.7.145-5.83 1.68-8.19.688-14"/>
          <path d="M35.7 72.2c-3.34-5.36-7.67-10.2-10.1-16.1.614-4.82.172-10.6-.532-16.5-.14-6.85-5.74-12.1-6.1-18.9"/>
          <path d="M27.8 19.4c1.7 4.24 1.05 8.83-.444 13-1.08 4.06-2.29 8.34-.924 12.5 1.4 7.01 3.04 11.4-.106 18.1-.99 2.46-3.44 7.97-4.87 10.2M39.6 36.1c1.18 9.22 3.78 18.8 10.5 25.6 3.7 4.36 7.77 8.63 10.3 13.8"/>
          <path d="M60.4 74.6C55.53 68.4 50 62.7 45.9 55.9c-2.76-6.36-5.11-13-6.25-19.8M79.5 59.2c-4.72-2.55-6.41-8.24-10.7-11.3-5.07-7.49-7.53-16.3-10.5-24.8-1.65-4.44-1.23-9.51-3.99-13.5"/>
          <path d="M78.5 58.2C72.91 53.27 68.62 47 65 40.5c-3.32-6.87-6.07-14.1-8.11-21.4-.662-3.25-1.53-7.49-3.14-10.5M66.7 62c1.23-7.57-4.18-13.8-7.85-19.8-2.34-4.62-1.76-10.1-4.01-14.8"/>
          <path d="M55.2 29.5c1.45 5.73 1.64 12.2 5.68 16.8 2.69 3.55 5.18 7.37 5.62 11.9.265 1.24.45 2.54.178 3.79M58.5 18.2c4.26 3.7 5.2 9.85 9.49 13.6 2.19 2.76 11.3 17.1 12.2 18.1M22.6 39.6c-1.75 5.8-2.94 11.8-3.08 17.8-.054.735-.072 1.48.017 2.21M39.7 62c.97 4.48-1.55 8.79-.957 13.2l.166.757M29.3 17.1c-2.45 2.06-6.21 8.84-6.88 13.2"/>
          <path d="M15.6 8.27c-2.63 4.33.188 9.37-.722 14-.284 6.5-.742 13.1 1.17 19.5.634 4.56 1.48 9.11 3.87 13.1 1.37 4.19 1.24 8.99.162 13.2"/>
          <path d="M19.2 70.7c2.35-6.52-.485-13.7-3.43-19.9-1.91-6.35-1.48-13.1-.958-19.8 0-5 .115-10-.158-15M46.7 11.1c3.08 10.3 3 19.6 6.71 29.7 2.21 6.52 4.11 13.2 6.79 19.5 1.57 2.92 3.61 5.63 6.14 7.79"/>
          <path d="M61.7 69.5c-4.01-6.34-8.22-13-8.67-20.7-1.6-10.8-3.45-21.7-3.3-32.6.36-2.79 1.95-3.61-.36-5.91M51.3 77.1c-4.69-3.2-3.15-9.56-4.51-14.3-.535-2.85-1.14-5.69-2.11-8.43M48.1 75.7c-2.01-4.28-4.97-8.25-5.37-13.1l-.167-.84M4 45.2c-1.11-3.23-.75-6.76.198-9.98M1.66 45.2c2.18-4.73.887-10.8 5.44-14.4m29 10.4c-.502-6.4-.722-19.3.19-25.7M30.7 33.7c-1.74-4.34-3.52-8.72-4.25-13.4M58.6 5.25c3.11 6.59 13.7 11.6 15.4 19.2.73 3.43 2.82 6.77 2.28 10.3"/>
          <path d="M75.3 53.1c.76-5.05-.524-25.9-3.6-30.3-2.23-6.18-8.59-8.26-12.1-13.5m-5.7 66.5c-.107-6.86-7.53-11.2-6.89-18.2.044-1.73.286-3.44.462-5.15M74.2 58.2c-3.28-2.41-4.06-6.71-5.74-10.2M38.5 78.2c.732-4.4-.015-8.96 1.43-13.3.094-1 .057-2.03-.243-3m6.713 7.2c-1.47-9.07-4.18-17.9-7.85-26.3-1.18-4.44-1.98-8.99-2.14-13.6"/>
          <path d="M35.4 27.9c.707 7.24.637 14.8 3.9 21.5 2.28 6.16 4.16 12.5 5.49 18.9M81.2 52.9c-5.1-4.8-11.7-8.9-16.8-16.4l-.5-.6"/>
          <path d="M80.6 52c-3.52-.534-13.2-8.47-18.9-18l-.027-.05M21.3 11c.954 7.18-.958 11-.637 18.2-.397 8.34-.02 16.7 1.75 24.9.82 6.74 1.02 13.5 1.14 20.3M32.4 12.8c-.845 13.7.433 26 1.12 39.7.738 6.07 1.32 12.2 1.96 18.3M17.1 8.15c-1.81 5.61-3.75 9.15-5.44 14.8-2.32 10.4-1.02 21-1.43 31.5l-.082.61"/>
          <path d="M12.8 60.6c1.13-11.1.633-22.2.916-33.4.482-6.2 4.28-11.5 5.98-17.4m3.804 1.9c-1.7 6.11 3.97 7.07 3.24 13.2-.052 2.24-.25 4.49-.716 6.69M64 59.1c-2.97-4.54-2.88-10.2-1.79-15.3.51-5.25-1.02-11.1-5.48-14.3-3.61-3.04-6.91-6.57-8.4-11.1-.848-1.83-3.56-4.71-4.11-6.66"/>
          <path d="M28.2 20.4c-3.31 7.95-.235 16.7 3.8 23.8 3.21 4.49.46 9.61-1.04 14.1-1.18 3.49-3.93 6.65-2.78 10.6"/>
          <path d="M24.7 12.6c.11 5.25 2.15 14.2 5.03 18.4 2.81 5.65 3.73 12 3.48 18.3.328 6.02.145 12.2-1.89 17.9-.5 2.18-.928 4.42-1.97 6.42M8.88 40.8c4.22-4.2 8.82-8.2 11.9-13.4m-.58 11.8c-.332 4.56-9.95 20.8-10.6 25.2l-.054.772"/>
          <path d="M15.9 73.4c-3.59-4.4-.324-10.1-.29-15 .292-2.88.51-5.79.352-8.69M13.3 71.2c-.715-4.68-2.43-9.33-1.45-14.1l.077-.853M15.4 50.3c1.32-6.28 1.98-12.8 4.67-18.7M17.8 73c2.38-6.44-2.97-13.2.148-19.5.664-1.59 1.51-3.1 2.29-4.63M4.53 59.3c1.94-4.01 2.51-8.59 5.11-12.3.373-.935.627-1.93.613-2.95M60.4 57c-1.67-9.03-4.85-27.8-8.7-36.1-1.28-4.41-2.46-6.16-2.73-10.7M35.6 12.6c-1.37 7.15-2.92 11.8-1.67 19.1.446 6.56.464 13.2-.07 19.7M30.6 13.1c-1.37 7.15-.6 9.98.646 17.3.446 6.56.464 13.2-.07 19.7M57.1 5.89c3.26 5.55 2.68 10 5.5 15.8 2.35 7.1 2.58 15.2 10.3 19.7 2.67 4.78 5.02 9.74 7.27 14.7M37.4 12.9c.64 13.7 1.91 29.8 4.08 43.4 1.39 5.96 2.62 12 3.92 17.9"/>
          <path d="M56 7.13c4.34 7.64 7.34 13.6 12.7 20.5 1.06 6.13 10.3 13.7 13.9 16.9M52.8 40.8c.985 6.25 5.96 11 7.84 16.9.88 2.06 2.43 3.3 2.92 5.49"/>
          <path d="M59 5.96c1.09 5.06 3.27 10.9 6.72 14.6 3.94 3.82 5.99 8.28 6.89 13.5 2.36 6.81 8.41 10.5 11.3 16.3M77.4 54.2c-2.99-1.32-11.9-11.9-12.9-20.9-.7-5.37-4.1-9.56-7.49-13.5-2.93-3.57-3.36-6.58-5.04-10.8m6.53 47.1c-4.93-3.29-3.74-9.88-2.97-15.1.105-5.28-1.86-10.9-6.56-13.8-3.83-2.75-7.4-6.01-9.23-10.5-.986-1.76-1.73-2.14-2.42-4.03M21.9 29.2c.266 8.59 6.69 15.3 13.3 20 4.78 2.75 4.38 8.55 4.89 13.3.375 3.66-.827 7.69 1.84 10.8"/>
          <path d="M44 10.3c2.54 6.37 4.75 5.76 8.74 8.97 4.33 4.58 7.05 10.4 8.62 16.4 2.06 5.67 2.59 12.7 2.31 18.7.153 2.23 1.46 3.43 1.05 5.65M55.4 14c2.46 8.95 6.37 19.5 14 25.3 4.94 8.84 9.12 6.01 12.1 10.8M61.3 71.5c-5.7-5.4-12-10.3-17-16.4-3.6-5.9-6.9-12.1-9-18.7m28.5 32.1c-7.84-3.51-11.4-10.7-11.5-19.3-3.1-10.5-6.3-18.6-7.68-29.5-.035-2.81.687-6.39-1.93-8.34M33.2 72.9c-5.26-2.67-4.48-9.44-6.67-14.1-.872-2.54-1.82-5.07-3.07-7.46M43.3 72.2c-1.06-6.77-6.08-4.93-6.42-11.9-.198-1.72-3.14-8.53-3.21-10.3"/>
          <path d="M55.1 47.5c-2.72-8.77-6.64-17.1-11.4-24.9-1.79-4.23-3.17-6.07-3.98-10.6M73.8 55.9c-3.41-2.61-9.98-28.4-14.8-38.4-1.89-4.18-2.69-5.7-3.6-10.2"/>
        </g>
      </g>
    </symbol>

    <symbol id="S_LEGS" viewBox="0 0 34.06 76.739">
      <path d="M0 0c1.62 5.94 3.43 11.7 5.12 16.7.907 2.7 2.33 9.6 2.33 11.2 0 2.02.03 4.37.61 7.46.648 3.44 4.66 12.8 7.05 17.1 2.6 4.61 3.22 5.19 2.98 10.5-.07 1.56-1.12 2.68-1.33 3.79-.297 1.55-5.54 4.19-6.18 4.76-.97.87.317 1.93.72 1.61-.24.664.407 1.24 1.06.935.364.484 1.03.63 1.52.2.326.142.563.324.92.31.827-.037 1.68-.176 1.91-1.11.5.917 1.14.964 1.81.962 1.07-.004 2.12-.03 2.9-1.13l5-10.7-7.5-62.7z" fill="#a16745"/>
      <path d="M13.3 0l-.098.815c-.417 3.32-1.7 11.1-1.09 17.2.504 4.95 3.61 10.2 4.34 15.6.555 4.15 1.2 8.82 2.55 13.4 3.14 10.7 2.74 12.9 2.7 20.8-.015 3.76-.743 5.65-.743 5.65 5.1-3.6 2.4-47.7.4-73.4z" fill-opacity=".208" fill="#70503b"/>
      <path d="M14.5 0c-1.05 10.9-.824 15.8-.893 17.2-.143 2.72 1.39 6.94 2.79 10.8 2.24 6.17 1.1 6.47 1.56 9.58 1.36 9.21 5.01 15.2 5.12 22.2.024 1.61-.634 2.95-.065 4.24.046.09-.09 6.49-.272 6.57-.606.272-1.2 1.15-1.03 2.68.075.654-1.07 2.37.178 3.21.55.372 1.73.507 2.53.097.574-.292.76-.78.807-1.24.086-.862-.37-1.38-.29-1.72.117-.487.408-.297.418.173.02 1 .263 1.47.668 2.03.34.465 2.15.848 2.19-.448.026.47.39.93 1.11.88.76-.052.98-.455 1.03-.732.295.31.648.54 1.04.47.388-.07.837-.31.9-.935.238.32.76.382 1.19.023.3-.248.308-.75.198-.924.254.06.66-.775.172-1.33-.467-.526-3.2-3.87-3.46-8.3-.117-1.96 1.07-1.54.344-3.16-.38-.856-.876-2.93-.546-5.13.8-4.9 1.8-13.3 1.6-20.6-.1-4.8-3.9-10.4-3.1-14.5 1.4-6.8 2.9-12.8 5.3-21.4z" fill="#a16745"/>
      <g stroke-linejoin="round" stroke-opacity=".089" stroke="#704b31" stroke-linecap="round" fill="none">
        <path d="M8.85 25.3s.64 2.24 1.6 3.04m5.85-9.14c-1.6 1.44.48 6.52.908 7.37M24 26.6c.48 1.55-.48 4.11-.48 4.11" stroke-width=".979"/>
        <path d="M9.12 35.6c.466 3.55 6.4 16.4 9.35 21.6" stroke-width="1.46"/>
        <path d="M23.2 63.4c.855-.855.347-1.66.614-3.42" stroke-width=".635"/>
        <path d="M23 71.5c.775-.64 1.39-1.1 1.68-1.6.294-.507 1.2-2.67 1.23-3.85.027-1.18-.48-1.87-.72-1.82-.24.053-.348-.24-.108-1.76s.08-2.46.08-2.46" stroke-width=".873"/>
        <path d="M27.8 73.2s-.107.588.16.988M29.6 72.8s-.027.8.56 1.84m1.64-1.94c-.027.534.08 1.07.294 1.36M33 73.3c.027.107.16.4.267.507M18.6 71.1c-.267.294-.507.507-.72.588-.215.08-1.6.427-1.34 1.5M15.9 71.5s-.88.908-1.5 1.2m-.6.9c-.027.56-.134.748-.374.828M14.6 71.3l-1.63 1.2m-.47 1c-.107.32-.48.427-.48.427M13.1 71.2s-.534.374-.64.32m-.96.78s-.08.294-.32.347M22.6 75.6s.214-.855 1.2-.88M19.1 72c.4.053 1.07.027 1.44-.08" stroke-width=".529"/>
      </g>
    </symbol>
  </defs>

  <use xlink:href="#S_BODY" height="352.49" width="313.1" x="2" y="2"/>

  <use xlink:href="#S_FLOWER" height="56.1" width="48.7" x="104" y="24"/>

  <use xlink:href="#S_BRA" height="63.552" width="129.551" x="89.5" y="186.5"/>

  <use xlink:href="#S_LEI" height="148" width="119" x="103" y="126"/>

  <use xlink:href="#S_SKIRT" height="298" width="338" x="33" y="303"/>

  <use xlink:href="#S_LEGS" height="290" width="129" x="373" y="2"/>
</svg>