<svg xmlns="http://www.w3.org/2000/svg" width="146.5" height="82.29" xmlns:xlink="http://www.w3.org/1999/xlink" viewBox="0 0 146.47821 82.286849">
  <defs>
    <symbol id="S_BAMBOO_2">
      <path d="M363.1 189.4c-2.188-5.903-1.648-25.82-.0984-35.32-3.232-3.124-8.634-3.03-11.73.1015.87 10.71 2.274 28.41.5913 36.95 1.209 7.398 1.684 27.11.408 38.6 1.63 3.097 8.856 3.256 10.84.1355-.591-8.911-2.344-27.78-.014-40.47z"/>
      <path fill="#e1a757" d="M361.6 154.4c-2.106-2.295-5.675-3.085-8.994-.1987.7746 11.56 1.391 26.86.4524 36.67.9347 14.58 1.058 27.36.461 38.54 2.146 2.892 6.966 1.362 8.44-.1857-.6638-12.15-1.523-23.9-.3042-39.82-1.503-10.56-1.04-22.59-.055-35z"/>
      <path fill="#e18330" fill-opacity=".5134" d="M355.5 154c-.6053.3154-1.103.5863-1.427.8874.4727 12.25 1.366 25.99.3124 35.97 1.842.0578 4.359-.4192 6.124-.845-2.283.9263-4.796 1.849-6.092 2.033.2388 1.679.4915 27.72.4478 38.32-.4524-.1902-.8926-.531-1.326-.9563.8163-11.93.3922-25.16-.3557-38.73.9875-16.45.0374-25.24-.4217-35.84.8386-.522 1.936-.772 2.738-.836z"/>
      <path fill="#e8d3b0" d="M356.5 230.1c1.644-.2696 2.548-.5586 2.548-.5586-.4457-4.648-.6657-10.96-.442-15.16.3547 7.105.4293 11 .984 14.94 0 0 .5917-.131 1.557-.59-1.188 1.539-4.086 1.623-4.646 1.374zm2.7-51.9c.4827 9.552 1.054 11.27 1.054 11.26 0 0-3.606 1.136-5.3.5845 1.581-.046 3.228-.5856 4.322-1.002-.0753-1.149-.2635-6.705-.0753-10.84zm-5.2-24c3.006-.9906 3.71-.8588 6.466.6183-1.67-2.182-4.078-2.473-6.466-.6183z"/>
    </symbol>
    <symbol id="S_BAMBOO_3">
      <path d="M297.7 181.8c-.9937 3.926-1.141 12.8.7523 18.31-1.529 5.771-1.555 18.09.1578 24.48-2.58 2.437-7.843 2.601-10.11.147 1.321-4.784.894-20.57-.208-24.8 1.382-5.707 1.647-11.79-.124-17.6 1.3-2.318 6.654-3.397 9.535-.5283z"/>
      <path fill="#e1a757" d="M296.5 182.1c-1.165-1.546-5.543-2.044-7.171.519 1.291 5.717 1.229 11.47.2624 17.24.8154 8.154.997 16.34.219 24.49 1.894 1.791 5.921 1.653 7.46-.2605-.7475-3.053-1.388-20.42-.0457-24.02-.9147-1.742-1.73-12.24-.7242-17.97z"/>
      <path fill="#e18330" fill-opacity=".5134" d="M289.4 182.8c1.219 2.849 1.225 15.65.1412 17.07.594 2.757 1.303 16.25.2546 24.49 1.468.8782 2.375.768 2.375.768s-1.083-.454-1.372-.8475c.3042-7.395.2228-11.93-.2822-22.56 1.65.588 4.049-.1608 4.755-.51-2.123-.0238-3.6.1778-4.894-.621.2587-1.709 1.223-12.3.0875-17.39.857-.6773 3.357-1.223 3.357-1.223-1.362-.0465-2.894.1045-4.422.8192z"/>
      <path fill="#e8d3b0" d="M292.6 225c1.39.007 2.218-.1608 2.218-.1608-.6073-2.934-.6362-7.805-.2503-9.047.0998 1.981.233 6.096.7645 8.878 0 0 .9-.27 1.302-.655-.5562 1.323-3.503 1.435-4.034.9847zm-2.5-42.6c1.71-.718 3.79-.903 5.388-.3698-1.13-1.292-4.56-.815-5.388.3698zm4.7.7c.0807-.393.9113-.467.6347.135-.4474.974-.4033 1.829-.3518 3.097-.252-1.638-.422-2.554-.283-3.232zm-4 17.1c.9093.2974 3.617.4068 5.235.092-.86.9152-4.889.8107-5.235-.092z"/>
    </symbol>
    <symbol id="S_BAMBOO_5">
      <path d="M514.9 28.35c-1.763-3.969-1.165-17.3.147-23.66-2.627-2.5-7.27-2.662-9.82-.2046.662 7.185 1.485 19.18.0678 24.89.955 4.965 1.452 18.16.3545 25.86 1.404 1.92 7.701 2.359 9.298.3636-.8492-7.471-2.007-18.84-.0466-27.25z"/>
      <path fill="#e1a757" d="M513.7 4.854c-1.713-1.551-4.63-2.1-7.359-.1846.5798 7.753 1.013 18.01.1988 24.58.6967 9.779.7382 18.35.197 25.84 1.743 1.95 5.694.9528 6.908-.0763-.4864-8.146-1.135-16.03-.0628-26.69-1.18-7.086-.7452-15.14.1185-23.46z"/>
      <path fill="#e18330" fill-opacity=".5134" d="M508.7 4.554c-.4968.208-.905.3867-1.172.5867.3296 8.213.9962 17.43.0875 24.11 1.507.0492 3.569-.256 5.015-.5314-1.872.6078-3.934 1.212-4.994 1.328.1876 1.127.2726 18.58.1873 25.69-.3694-.13-.728-.361-1.08-.6486.7238-7.992.4386-16.86-.11-25.96.885-11.02.1486-16.92-.1776-24.03.6887-.345 1.588-.5064 2.245-.545z"/>
      <path fill="#e8d3b0" d="M509.2 55.58c1.347-.1713 2.088-.36 2.088-.36-.343-3.118-.4936-7.349-.291-10.17.2572 4.764.3 7.373.7357 10.02 0 0 .4847-.0844 1.277-.3865-.9796 1.025-3.351 1.064-3.809.8945zm2.4-34.75c.3503 6.405.8102 7.561.8098 7.552 0 0-2.957.7408-4.34.3615 1.294-.0218 2.645-.374 3.541-.6472-.0562-.7705-.1843-4.496-.011-7.267z"/>
    </symbol>
    <symbol id="S_BAMBOO_L">
      <use width="100%" height="100%" xlink:href="#S_BAMBOO_5" transform="translate(-93.81 81.46)"/>
      <use width="100%" height="100%" xlink:href="#S_BAMBOO_3" transform="rotate(92.98 342.02 236.99) scale(.8)"/>
    </symbol>
  </defs>
  <use width="100%" height="100%" xlink:href="#S_BAMBOO_3" transform="rotate(7.61 1199.08 -1549.32)"/>
  <use width="100%" height="100%" xlink:href="#S_BAMBOO_2" transform="rotate(2.29 -430250 -188250)"/>
  <use width="100%" height="100%" xlink:href="#S_BAMBOO_5" transform="rotate(87.71 246.75 -200.68)"/>
  <use width="100%" height="100%" xlink:href="#S_BAMBOO_3" transform="rotate(87.99 258.06 -31.49)"/>
  <use width="100%" height="100%" xlink:href="#S_BAMBOO_3" transform="matrix(.04 -.8 .8 .04 -130.1 267.1)"/>
  <use width="100%" height="100%" xlink:href="#S_BAMBOO_3" transform="translate(-227.4 -158.5)"/>
  <use width="100%" height="100%" xlink:href="#S_BAMBOO_3" transform="translate(-208.9 -158.3)"/>
  <use width="100%" height="100%" xlink:href="#S_BAMBOO_3" transform="matrix(.26 .75 -.75 .26 168.9 -241.2)"/>
  <use width="100%" height="100%" xlink:href="#S_BAMBOO_L" transform="translate(-296.9 -70.46)"/>
</svg>