<svg xmlns="http://www.w3.org/2000/svg" xmlns:xlink="http://www.w3.org/1999/xlink" viewBox="0 0 944 1054" width="944" height="1054"><defs><symbol id="a" viewBox="0 0 163 215"><path d="M81.3 0c-6.4 35.2-35.8 58.7-53.9 75.8-69.5 58.2 10.3 123 51.3 56.2.9 66-48.3 75-68.3 77l-1.01 6h144l-1-6c-20-2-69.1-11-68.1-77 41.1 67 121 2 51.1-56.2-18-17.1-47.3-40.6-53.7-75.8z"/></symbol><symbol id="b" viewBox="0 0 154 210"><path d="M76.9 0C66 24.3 22 84.2 0 105c22 21 66 81 76.9 105 10.8-24 55.1-84 77.1-105C132 84.2 87.7 24.3 76.9 0z"/></symbol><symbol id="f" viewBox="0 0 208 207"><path d="M69.3 76.6C38.3 51.5-9 79.7 1.5 124c10.5 45 73.1 54 100-3 1 75-54.2 77-68.8 81l-1.1 5h144l-1-5c-15-4-69-6-69-81 28 57 90 48 101 3 10-44.3-37-72.5-68-47.4 28-37.2 2-76.6-35-76.6-36.9 0-63.1 39.4-34.7 76.6z"/></symbol><symbol id="g" viewBox="0 0 185 212"><path d="M21.3 6.2C3 16.7-4.9 43.4 3.1 63.5 21 109 77.4 153 92.3 211.5c14.7-59 71.7-103 89.7-148 8-20.1 0-47.5-19-57.3C138-7 111 3.76 92.3 31.6c-20.7-28.8-46-39.5-71-25.4z"/></symbol><symbol id="k"><use xlink:href="#a"/></symbol><symbol id="m"><use xlink:href="#b" fill="red"/></symbol><symbol id="l" viewBox="0 -2 129 225"><path fill="red" d="M80.8-.5v27.9h9v123c0 42-10 44-29.9 44-20 0-30-5-30-44H0c0 58 20 70 59.9 70 29.9 0 60.1-7 60.1-70v-123h9V-.5z"/></symbol><symbol id="c"><ellipse rx="106" ry="110" cy="110" cx="106"/></symbol><symbol id="d"><ellipse rx="78.8" ry="82.2" cy="108" cx="106" fill="#f9f9f9"/></symbol><symbol id="e"><path d="M217 186l15 18s-13 15-33 15-36-7-48-24c-9-13-18-20-32-19s-18 8-22 18l-27-7c5-17 18-34 44-37s40 9 50 19c7 7 26 41 53 17z"/></symbol><symbol id="j" viewBox="-2 -2 236 224"><use xlink:href="#c"/><use xlink:href="#d"/><use xlink:href="#e"/></symbol><symbol id="i" viewBox="0 0 161 225"><rect ry="8.05" width="161" height="225" fill="#f9f9f9"/></symbol><symbol id="h" viewBox="0 0 944 474"><path d="M31 51.7c40.6-7 55.2 39.8 55.2 52.3l.9 206c0 49 78.9 32 78.9-34V50c0-30.9-20-39.1-20-39.1l2-4.52c21-2.03 55 23.7 55 47.6v302c0 78-48 102-87 113-38.6 8-91 8-116-21l28-30c39.1 38 138 70 138-41v-57c-58 59-119 31-119-17v-224c0-15-9.7-22.2-17.7-24.2zM297 228c-50 7-79 31-79 65 0 60 65 39 79 12v-9c-35 36-41-3-41-10 0-31 13-47 41-50zM359 .188c41-3.1 52 32.9 52 50.4v157c24-23 79-50 79 1v96c0 3 1 11 12 6l3 5c-31 21-54 12-54-21l-1-87c-2-24-39 7-39 7v119c0 6 2 11 13 6l3 5c-28 24-55 12-55-22l1-300c0-10.5-7-15.6-16-16.6zM580 177l25-1 8-12h-33v-42c0-35.5-23-56.2-52-56.3l-3 5.2c12 5.5 12 5.2 12 27.5V164h-23l-7 13h30v117c0 45 39 46 60 23l-3-5c-9 3-14 0-14-7zM742 324s-3 15-9 15H630c-14 0-17-11-13-19l82-114h-80s2-14 11-14h98c11 0 14 15 8 26l-67 106zM911 187h-3c-42 0-86 42-91 72-11 77 60 93 113 66l-2-3c-48 17-74-13-75-51-1-37 8-75 45-75 22 0 23 70-46 67v6c93 2 121-82 59-82z"/><path d="M746 .188c41-3.1 53 32.9 53 50.4v283c0 6 1 11 13 6l2 5c-27 24-54 12-55-22l1-300c0-10.5-7-15.6-16-16.6zM235 193l3 4c26-22 58-20 58 19v91c0 17 10 25 24 25 8 0 25-7 34-18l-1-4c-14 7-17 0-17-9v-73c0-34-16-49-36-56-22-8-51 9-65 21z"/></symbol></defs><g fill="#ffd42a"><use xlink:href="#a" width="163" height="215"/><use xlink:href="#b" x="163" width="154" height="210"/><use xlink:href="#f" x="317" width="208" height="207"/><use xlink:href="#g" x="525" width="185" height="212"/></g><use xlink:href="#h" fill="#ffd42a" y="215" width="944" height="474"/><svg y="689" width="261" height="364.75"><use width="261" height="364.75" xlink:href="#i"/><use x="5.77" y="12.58" width="36.26" height="34.43" xlink:href="#j"/><use x="11.63" y="51.38" width="24.54" height="31.79" xlink:href="#k"/><use x="-237" y="-335" width="36.26" height="34.43" transform="rotate(180 9.065 8.61)" xlink:href="#j"/><use x="-237" y="-297" width="24.54" height="31.79" transform="rotate(180 6.135 7.95)" xlink:href="#k"/><use x="103.69" y="148.91" width="52.62" height="68.18" xlink:href="#k"/></svg><svg x="261" y="689" width="261" height="364.75"><use width="261" height="364.75" xlink:href="#i"/><use x="14.12" y="12.58" width="19.57" height="34.43" xlink:href="#l"/><use x="10.9" y="52.7" width="26" height="31.79" xlink:href="#m"/><use x="-237" y="-335" width="19.57" height="34.43" transform="rotate(180 4.89 8.61)" xlink:href="#l"/><use x="224" y="281.1" width="26" height="31.79" xlink:href="#m"/><use x="105" y="148.91" width="50" height="68.18" xlink:href="#m"/></svg></svg>