<svg xmlns="http://www.w3.org/2000/svg" xmlns:xlink="http://www.w3.org/1999/xlink" viewBox="0 0 2255 1196" width="2255" height="1196"><defs><filter id="F0"><feGaussianBlur stdDeviation="8"/></filter><filter id="F1"><feGaussianBlur stdDeviation="0.8"/></filter><symbol id="S0" viewBox="0 0 332 348" width="332" height="348"><path fill="#000" d="M19.3 59.4c3.2-1 4.7-2 5.2-5 7.2-42 8-42 47.8-44 2.9 0 4.6-0.98 5.6-1.98 7.2-11 10.4-10 17.5-4 15.6 15 39.6 29 59.6 44 5 4 6 4 11 1 26-15 65-7 94 18 5 4 6 4 11 0 17-10 55-11 58-8s3 49.6-16 69.6c-3 4-3 5-3 10 7 36 7 57-3 75-3 4-2 7-1 11 4 11 4 29 0 43-6 19-15 27-31 38-3 2-7 4-9 6-3 3-4 7-8 11-18 21-48 29-81 21-6-2-9-4-13-4-3 0-6 2-11 3-33 5-59.3-23-68.8-48-2.8-7-2.8-7-7.7-11-8-6-16-16-19-30-0.7-3-1.5-4-4.3-6-30.7-19-49.8-55-53.2-90-0.17-3 0.73-4 4.93-6 8.37-4 18-8 29.4-10-0.5-18-15.1-34-23.2-52.6-7.07-16-4.77-26 8.2-30z"/></symbol><symbol id="S1" viewBox="0 0 332 348" width="332" height="348"><use xlink:href="#S0"/><path fill="#fdd0af" d="M16 167c-0.6-3 1.2-4 2.7-5 19.7-9 41.6-10 62.1 10 7.1 7 15.9 4 10.9-5-3.9-7-19-17-18.9-18 0.2-1 7.1-4 15.5-6s16.7-1 16.7-1c0 1-5.7 10-5 18 1 7 5 3 7 1 7-5 5-21 20-25 8-2 14 6 21 9 9 4 8-2 6-7-3-6-17-11-17-13 2-15 24-56.6 34-62.6 19-11 53-10 88 21 2 2 5 6 7 6 3 0 7-4 8-5 16-13 42-12 42-11 1 1 0 32.6-15 48.6-7 8-6 11-4 20 8 31 5 57-7 68 0 0-8-1-9 2-1 5 4 7 7 10 12 12 9 34 2 49-4 9-23 27-27 23l-3 1c-7 22-22 30-43 36-18 6-48-1-55-7-6-4-5 0-6 2-4 5-20 5-31-2-14-8-24-27-32.2-46-0.8-2-1.2-3-4.7-5-10.4-5-16.6-20-20.1-33-0.6-2-1.3-4-3.2-5-12.1-7-20.8-13-29.2-24-13-17-18.9-40-19.6-44z"/><g fill="#FFF"><path d="M90.6 18.4c2 0 12.4 13 27.4 23 10 6 31 15 31 20 1 7-11 23-16 33-4 10.6-13 28.6-14 29.6-3 2-17 4-34 7-16.5 4-31.7 10-33.7 8-3.4-4-5.6-18-13.6-30-8.5-13.6-15.4-29.6-13.3-30.6 2.9-1 11 5 35.2 6 24.1 1 27.8 3 35.9 10 2.2 2 4.5 4 7.5 3 2-1 1-10-1-13-10.1-30-15.6-65-11.4-66z"/><path d="M39 43.4c0.8-5 5-6 8.2-3 10.6 10 19.8 21 26.3 28 3.9 5-2 6-4.6 6-7.9 1-16.9 0-26-2-4.2 0-5.8-1-5.7-5 0.2-7 0.4-15 1.8-24z"/><path d="M55.7 31.4c-1-2-3.1-6 1.1-7 4 0 6.1-1 9.6-1 4.2 0 8 0 9.7 9 1.4 7 2.1 11 4.1 19 3 11-2.7 6-4.8 4-8.1-8-14.8-16-19.7-24z"/><path d="M138 179c24 3 34 42 34 61-17 7-31 6-54 4 0 0-21.8-70 20-65z"/><path d="M221 153c37 5 37 59 34 70-4 2-36 4-48 2-19-31-8-75 14-72z"/></g><g fill="#000"><path d="M236 187c8 7 12 32 6 35v1c14 12 17 20 20 30 1 3 1 6-2 9-2 3-16 12-17 16-7 13-5 41-26 41-16 1-22-10-25-13-2-3-11-14-14-14s-2 6-5 6c-5 0-3-20-8-28-8-14-12-19-24-23-11-3-29 15-33 20-1 2-7 3-5-2 4-9 12-14 12-17 1-1-3-9-4-13s-3-15-3-26 3-33 23-35 32 17 34 21c8 12 9 27 9 42 0 3-3 5-4 0-2-7-2-16-5-25-3-8-13-32-31-31s-20 22-20 33c1 14 4 25 6 28 4 3 10 0 10-3-2-10-2-17 0-23 1-3 7-9 9-8 4 2 4 10 6 10 1 0 3-10 6-10 7 2 14 17 12 32-1 4-1 4-4 4-2 0-1 2 0 3s12 16 14 28c3 12 4 9 6 10h16c2-1 5-1 4-5-5-10-10-24-6-44-4-1-7 8-12 4-3-4 6-5 5-9-1-2-6-1-8-1-3-1-2-4-1-5 3-1 12 2 22 1 2 0 3-2 3-4-1-2-8-12-8-35 0-27 17-39 25-39 7 0 18-1 32 23 8 14 11 39 9 49-2 5-6 3-6 3 3-39-11-60-27-66-18-6-28 18-26 33 3 23 5 33 11 32 2 0 0 5-3 7-8 4-9 10-10 22 0 12 1 21 9 31 1 1 4-2 4-3-7-13-13-41 3-53-6-11-5-35 7-42 3 1 8 10 9 10 1 1 3-4 3-7z"/><path d="M275 91.4c5-7 20-16 28-14 8 3 2 8-1 9-3 2-9 1-22 11-4 2.6-8-2-5-6z"/><path d="M221 101c19 1 24 18 24 20 0 4-3 3-4 2-4-5-11-12-20-13s-15 11-20 18c-1 3-6 5-6 1 0-6 8-28 26-28z"/><path d="M34.4 167c22.4-1 37.4 6 47.7 21 4.4 7-0.3 7-3.8 4-20.5-18-33.7-17-47.5-17-5.6 0-6.1-8 3.6-8z"/></g><path fill="#fdd0af" d="M210 248c3-20 19-27 32-15 9 8 10 14 13 21 1 5-5 10-15 16s-22 8-23 5c-5-8-8-18-7-27z"/><path fill="#f68266" d="M217 300c1-2-1-9 1-13 1-4 15-6 15-6s-1 9-2 12c-3 11-1 16-14 20-9 2-19-10-22-15-1-2-2-4-2-5 1 0 6-1 12 1s10 8 12 6z"/><g fill="#000"><path d="M217 254c1-1 3-1 4 0s2 2 5 3 4 10-1 10-6-2-7-4c-4-6-2-7-1-9z"/><path d="M241 245c2-3 5-3 7 0s2 9-1 12c-2 2-5 2-7-1-1-3-2-9 1-11z"/></g><g fill="#fdd0af"><path d="M244 248c2 0 2 5 0 5s-3-5 0-5z"/><path d="M221 258c2-1 5 4 2 5-4 1-4-4-2-5z"/></g></symbol><symbol id="S2" viewBox="-1 0 352 368" width="353" height="368"><path d="m21.4 62.9c3.4-1 5-2 5.6-5 7-41 18.4-43 47.6-45 3.1 0 6-1 7.1-2.96 7.7-12 18-12 24.3-6 12 13 39 28 60 44 6 5 7 5 13 2 25-13 64-6 91 18 6 4 8 1 12 0 20-9 58-12 65-4 6 6 6 58.1-14 79.1-3 5-3 9-2 15 5 31 4 54 0 62-8 14-2 24-2 34 1 39-16 57-35 68-12 7-22 25-33 32-16 10-41 15-58 14-10-1-24-6-29-6-4 0-25 4-37 0-21-7-40.1-23-50.4-47-3-8-3-8-8.2-12-8.6-7-17.7-15-21-31-0.8-3-1.5-4-4.6-6-33.4-21-48.6-61-53.2-89-1.84-12 3.66-20 10.5-23 6.9-3 14.4-3 19.2-10 4.6-6-16.7-31-21.7-48.1-4.19-14-0.76-28 13.4-33z"/></symbol><symbol id="S3" viewBox="0 0 353 368" width="353" height="368"><use xlink:href="#S2" x="0" y="0" width="353" height="368" fill="#FFF"/><use xlink:href="#S1" x="11" y="12" width="332" height="348"/></symbol><symbol id="S4" viewBox="0 0 264 272" width="264" height="272"><path d="m206 272c14 0 15-60 13-81 9-7 48-64 45-100-3-33-14-54-46-70-25-12-53-21-82-21-32 0-64.9 7-92.9 23-31 18-41 37-43 69-1.99 37 24 85 45 102 0 0 5 72 17 74 15 3 20-18 23-18 6 1 9 16 22.9 16 12 0 11-36 9-48 10 1 30 0 38-2-1 19-3 52 9 52 18 0 16-12 23-11 8 1 9 15 19 15z"/></symbol><symbol id="S5" viewBox="0 0 80 74" width="80" height="74"><path d="m76 0.04c-5 1-4 9-7 15-3 4-10 5-10 5s-1-4-3-7c-3-4.96-11-5.96-15-3-4 4-3 10 0 14s7 5 10 5c0 0 0 5-3 8-2 2-7 2-7 2s0-5-4-10c-3-4-10-6-15-2-4 3-4 10 1 16 4 4 10 4 10 4s1 6-2 10c-2 3-6 5-9 6-6 2-9-2-9-2 4-1 7-4 8-7 1-4 0-9-3-12s-8-4-11-2c-5 3-7 10-7 16s4 12 9 15 12 2 18 0c5-2 10-6 12-10 3-7 2-14 2-14s7 1 11-3c6-5 7-15 7-15s11-2 15-6c7-7 8-24 2-23zm-25 16c1 1 1 5 1 5s-5 0-6-2c-1-1-1-3 0-4s4 0 5 1zm-19 18c1 3 1 5 1 5s-3 0-5-2c-1-1-1-3 0-4s3-1 4 1zm-19 16c0 2-1 3-3 3 0 0-1-2 0-3s3-2 3 0z"/></symbol><symbol id="S6" viewBox="0 0 264 272" width="264" height="272"><use xlink:href="#S4" x="0" y="0" width="264" height="272" fill="#000"/><path d="m208 231c-11-7-27-8-40 0-2-3-1-16-1-16 17-7 26-15 29-21 2-5-2-9-5-6-12 14-35 19-55 19-28 0-57.9-18-65.9-25-4-3-8 0-6 4 3 6 29 23 39.9 27 1 7 1 12 1 19-12.9-11-31.9-9-43.9 1-2-6-5-20-5-30 0-4 3-11 1-15-7-15-38-31-43-81-4-42 25-63 44-75 19-11 48.9-19 74.9-18 29 1 60 6 83 23 17 13 32 29 32 57 0 23-13 56-37 88-5 6-1 34-3 49z" fill="#fdd0af"/><path d="m205 249c2 0 4-3 4-4 1-3 0-6-2-6s-4 2-5 5c0 2 1 5 3 5z" filter="url(#F1)" fill="#FFF"/><path d="m106 248c2-1 3-5 2-8-1-2-3-4-5-3s-2 4-2 6c0 3 3 6 5 5z" filter="url(#F1)" fill="#FFF"/></symbol><symbol id="S7" viewBox="0 -2 283 289" width="283" height="289"><path d="m217 287c19-1 23-37 21-64-1-17 8-30 12-36 5-7 34-43 33-83 0-28.9-12-65.9-47-81.9-25-11-53-23.1-90-23.1-36 0-64.6 5.1-96.6 23.1-35 21-45 36-49 76-4 41.9 23 82.9 33 94.9 5 6 14 16 15 32 3 20 10 54 17 58 16 8 28-9 32-9 4.6 0 6.6 8 22.6 8 11 0 16-15 16-30 1-13 3-18 10-18 9 0 10 7 10 17 0 14 0 34 19 34 11 0 15-6 22-6 5-1 9 9 20 8z"/></symbol><symbol id="S8" viewBox="0 0 283 289" width="283" height="291"><use xlink:href="#S7" x="0" y="0" width="283" height="289" fill="#FFF"/><use xlink:href="#S6" x="10" y="10" width="264" height="272"/></symbol><symbol id="S9" viewBox="0 0 264 272" width="264" height="272"><use xlink:href="#S6" x="0" y="0" width="264" height="272"/><use xlink:href="#S5" x="124" y="30" width="80" height="74"/></symbol><symbol id="SA" viewBox="0 0 283 289" width="283" height="291"><use xlink:href="#S7" x="0" y="0" width="283" height="289" fill="#FFF"/><use xlink:href="#S9" x="10" y="10" width="264" height="272"/></symbol><symbol id="SB" viewBox="0 0 55 72" width="55" height="72"><path d="m32 0.9c-5-0.09-11 1-15 3.7l1-3.2h-17v69.7h17v-21c2 3 8 4 13 4 13 0 23-12 23-25.6 0-18.1-11-27.4-22-27.6zm-5.4 17.2c5.23 0 9.47 4.24 9.47 9.47 0 5.23-4.24 9.47-9.47 9.47-5.23 0-9.47-4.24-9.47-9.47 0-5.23 4.24-9.47 9.47-9.47z"/></symbol><symbol id="SC" viewBox="0 0 18.6 72.7" width="18.6" height="72.7"><path d="m0.34 0.3h18v14.3h-18z"/><path d="m0.34 19.6h18v52.9h-18z"/></symbol><symbol id="SD" viewBox="0 0 50.5 74" width="50.5" height="74"><path d="m25 1.6c-11.8 0-24 8.6-24 24.5 0 20 19 27 29 23 4 5-2 8-6 8-5 0-10-2-14-6l-9 12c7 6 17 9 24 9 11 0 19-5 22-12 2-5 4-11-3-20.4 5-5.3 7-18.1 0-27.9 1-3.7 2-6.7 5-9.2h-16c-2-0.6-5.3-1-8-1zm0 17.2c4 0 7 3.1 7 6.9s-3 6.9-7 6.9-7-3.1-7-6.9 3-6.9 7-6.9z"/></symbol><symbol id="SE" viewBox="0 0 20 74" width="20" height="74"><path d="m1 0.8h18v72.2h-18z"/></symbol><symbol id="SF" viewBox="0 0 50 71" width="50" height="71"><path d="m31 0.5h18l-21 69.5h-17l6-21-16-48.5h18l6 19.4z"/></symbol><symbol id="SG" viewBox="0 0 71 54" width="71" height="54"><path d="m1 1 12 52h17l6-24 5 24h17l12-52h-17l-6 24-5-24h-13l-5 24-6-24z"/></symbol><symbol id="SH" viewBox="0 0 268 93" width="268" height="93"><use xlink:href="#SB" y="20" width="55" height="72"/><use xlink:href="#SC" x="60" width="18.6" height="72.7"/><use xlink:href="#SD" x="84" y="20" width="50.5" height="74"/><use xlink:href="#SD" x="138" y="20" width="50.5" height="74"/><use xlink:href="#SE" x="193" width="20" height="74"/><use xlink:href="#SF" x="218" y="20" width="50" height="71"/></symbol><symbol id="SI" viewBox="0 0 284 93" width="284" height="93"><use xlink:href="#SG" y="19" width="71" height="54"/><use xlink:href="#SC" x="76" width="18.6" height="72.7"/><use xlink:href="#SD" x="100" y="20" width="50.5" height="74"/><use xlink:href="#SD" x="154" y="20" width="50.5" height="74"/><use xlink:href="#SE" x="209" width="20" height="74"/><use xlink:href="#SF" x="234" y="20" width="50" height="71"/></symbol><symbol id="SJ" viewBox="0 0 27 27" width="27" height="27"><path d="m9.63 6.24c-0.44-0.01-0.64 0.11-0.64 0.39v13.5c0.06 0.65 0.41 0.92 1.13 0.92 0.71 0 1.05-0.47 1.09-0.92l0.07-5.54h2.5l3.41 5.8c0.53 0.78 1.03 0.74 1.48 0.52 0.41-0.21 0.61-0.94 0.28-1.52l-2.55-4.46c-0.28-0.45-0.11-0.55 0.05-0.65 1.62-0.35 2.63-1.84 2.63-3.79 0-2.96-1.92-4.24-3.18-4.24zm1.62 1.81h3.64c1.89 0 2.21 1.4 2.21 2.47 0 1.05-0.61 2.21-2.16 2.21h-3.68v-4.68z"/><path d="m13.5 0.9a12.6 12.6 0 0 0-12.6 12.6 12.6 12.6 0 0 0 12.6 12.6 12.6 12.6 0 0 0 12.6-12.6 12.6 12.6 0 0 0-12.6-12.6zm0 2.3a10.3 10.3 0 0 1 10.3 10.3 10.3 10.3 0 0 1-10.3 10.3 10.3 10.3 0 0 1-10.3-10.3 10.3 10.3 0 0 1 10.3-10.3z"/></symbol><symbol id="SK" viewBox="0 0 599 93" width="599" height="93"><use xlink:href="#SH" x="0" y="0" width="268" height="93"/><use xlink:href="#SI" x="296" y="0" width="284" height="93"/><use xlink:href="#SJ" x="572" y="54" width="27" height="27"/></symbol></defs><use xlink:href="#S1" x="20" y="20" width="332" height="348"/><use xlink:href="#S3" x="372" y="20" width="353" height="368"/><use xlink:href="#S0" x="745" y="20" width="332" height="348" filter="url(#F0)"/><use xlink:href="#S1" x="742" y="17" width="332" height="348"/><use xlink:href="#S2" x="1117" y="20" width="353" height="368" fill="#000" filter="url(#F0)"/><use xlink:href="#S3" x="1114" y="17" width="353" height="368"/><use xlink:href="#S0" x="1510" y="20" width="332" height="348" filter="url(#F0)"/><use xlink:href="#S2" x="1882" y="20" width="353" height="368" fill="#000" filter="url(#F0)"/><use xlink:href="#S6" x="20" y="428" width="264" height="272"/><use xlink:href="#S8" x="304" y="428" width="283" height="289" fill="#FFF"/><use xlink:href="#S4" x="607" y="428" width="264" height="272" filter="url(#F0)"/><use xlink:href="#S6" x="604" y="425" width="264" height="272"/><use xlink:href="#S7" x="911" y="428" width="283" height="289" fill="#000" filter="url(#F0)"/><use xlink:href="#S8" x="908" y="425" width="283" height="289" fill="#FFF"/><use xlink:href="#S4" x="1234" y="428" width="264" height="272" filter="url(#F0)"/><use xlink:href="#S7" x="1538" y="428" width="283" height="289" fill="#000" filter="url(#F0)"/><use xlink:href="#S5" x="1841" y="428" width="80" height="74"/><use xlink:href="#S9" x="20" y="757" width="264" height="272"/><use xlink:href="#SA" x="304" y="757" width="283" height="289"/><use xlink:href="#S4" x="607" y="757" width="264" height="272" filter="url(#F0)"/><use xlink:href="#S9" x="604" y="754" width="264" height="272"/><use xlink:href="#S7" x="911" y="757" width="283" height="289" fill="#000" filter="url(#F0)"/><use xlink:href="#SA" x="908" y="754" width="283" height="289"/><use xlink:href="#SK" x="20" y="1083" width="599" height="93"/><use xlink:href="#SK" x="639" y="1083" width="599" height="93" fill="#FFF"/><use xlink:href="#SK" x="1258" y="1083" width="599" height="93" fill="#ED1600"/></svg>