<svg xmlns="http://www.w3.org/2000/svg" xmlns:xlink="http://www.w3.org/1999/xlink" viewBox="0 0 261 365"><symbol id="b" viewBox="0 0 163 215"><path d="M81.3 0c-6.4 35.2-35.8 58.7-53.9 75.8-69.5 58.2 10.3 123 51.3 56.2.9 66-48.3 75-68.3 77l-1 6h144l-1-6c-20-2-69.1-11-68.1-77 41.1 67 121 2 51.1-56.2-18-17.1-47.3-40.6-53.7-75.8z"/></symbol><symbol id="a" viewBox="0 0 204 225"><path d="M47 149h106v-28H47z"/><path d="M87-.5l-87 226 31-1 72-186 72 186h29l-87-226z"/></symbol><rect ry="8.05" width="261" height="365" fill="#f9f9f9"/><use x="8.29" y="12.58" width="31.21" height="34.43" xlink:href="#a"/><use x="11.63" y="51.38" width="24.54" height="31.79" xlink:href="#b"/><use x="-237" y="-335" width="31.21" height="34.43" transform="rotate(180 7.805 8.61)" xlink:href="#a"/><use x="-237" y="-297" width="24.54" height="31.79" transform="rotate(180 6.135 7.95)" xlink:href="#b"/><use x="103.69" y="148.91" width="52.62" height="68.18" xlink:href="#b"/></svg>