<svg xmlns="http://www.w3.org/2000/svg" xmlns:xlink="http://www.w3.org/1999/xlink" viewBox="0 0 261 365"><defs><pattern id="d" width="430" height="508" patternUnits="userSpaceOnUse"><g fill="#a4c539"><path d="M215 45.3c-72 0-130 53.5-130 118v2h260v-2c0-64.2-58-118-130-118z"/><rect id="a" ry="28.7" height="180" width="57.1" y="170" x="357"/><rect id="b" ry="4.43" transform="rotate(28.72)" height="69.6" width="8.85" y="-127" x="266"/><path d="M85 176v186c0 17 11 31 26 31h206c16 0 28-14 28-31V176H215z"/><use xlink:href="#a" y="139" x="-222"/><use xlink:href="#a" y="139" x="-123"/><use xlink:href="#a" x="-341"/><use xlink:href="#b" transform="matrix(-1 0 0 1 434 -.068)"/></g><use xlink:href="#c" x="-119"/><path id="c" fill="#fff" d="M285.46 107.06c0 6.18-5.02 11.2-10.87 11.2s-10.88-5.02-10.88-11.2c0-5.86 5.02-10.87 10.87-10.87s10.86 5 10.86 10.86z"/></pattern><pattern id="e" xlink:href="#d" patternTransform="matrix(.102 0 0 .102 49.5 52.9)"/></defs><rect ry="8.05" width="261" height="365" fill="#f9f9f9"/><svg x="13.05" y="18.25" width="234.9" height="328.5" viewBox="0 0 143 209"><rect ry="1.85" height="209" width="143" fill="#a4c539"/><rect ry=".43" height="205" width="139" y="2" x="2" fill="#f9f9f9"/><rect ry=".43" height="205" width="139" y="2" x="2" fill="url(#e)"/></svg></svg>