<svg xmlns="http://www.w3.org/2000/svg" xmlns:xlink="http://www.w3.org/1999/xlink" viewBox="0 0 261 365"><symbol id="b" viewBox="0 0 154 210"><path fill="red" d="M76.9 0C66 24.3 22 84.2 0 105c22 21 66 81 76.9 105 10.8-24 55.1-84 77.1-105C132 84.2 87.7 24.3 76.9 0z"/></symbol><symbol id="a" viewBox="0 -2 129 225"><path d="M80.8-.5v27.9h9v123c0 42-10 44-29.9 44-20 0-30-5-30-44H0c0 58 20 70 59.9 70 29.9 0 60.1-7 60.1-70v-123h9V-.5z" fill="red"/></symbol><rect ry="8.05" width="261" height="365" fill="#f9f9f9"/><use x="14.12" y="12.58" width="19.57" height="34.43" xlink:href="#a"/><use x="10.9" y="52.7" width="26" height="31.79" xlink:href="#b"/><use x="-237" y="-335" width="19.57" height="34.43" transform="rotate(180 4.89 8.61)" xlink:href="#a"/><use x="224" y="281.1" width="26" height="31.79" xlink:href="#b"/><use x="105" y="148.91" width="50" height="68.18" xlink:href="#b"/></svg>