<svg xmlns="http://www.w3.org/2000/svg" xmlns:xlink="http://www.w3.org/1999/xlink" viewBox="0 0 261 365"><symbol id="b" viewBox="0 0 163 215"><path d="M81.3 0c-6.4 35.2-35.8 58.7-53.9 75.8-69.5 58.2 10.3 123 51.3 56.2.9 66-48.3 75-68.3 77l-1 6h144l-1-6c-20-2-69.1-11-68.1-77 41.1 67 121 2 51.1-56.2-18-17.1-47.3-40.6-53.7-75.8z"/></symbol><symbol id="a" viewBox="-2 -2 236 224"><ellipse rx="106" ry="110" cy="110" cx="106"/><ellipse rx="78.8" ry="82.2" cy="108" cx="106" fill="#f9f9f9"/><path d="M217 186l15 18s-13 15-33 15-36-7-48-24c-9-13-18-20-32-19s-18 8-22 18l-27-7c5-17 18-34 44-37s40 9 50 19c7 7 26 41 53 17z"/></symbol><rect ry="8.05" width="261" height="365" fill="#f9f9f9"/><use x="5.77" y="12.58" width="36.26" height="34.43" xlink:href="#a"/><use x="11.63" y="51.38" width="24.54" height="31.79" xlink:href="#b"/><use x="-237" y="-335" width="36.26" height="34.43" transform="rotate(180 9.065 8.61)" xlink:href="#a"/><use x="-237" y="-297" width="24.54" height="31.79" transform="rotate(180 6.135 7.95)" xlink:href="#b"/><use x="103.69" y="148.91" width="52.62" height="68.18" xlink:href="#b"/></svg>