<svg xmlns="http://www.w3.org/2000/svg" xmlns:xlink="http://www.w3.org/1999/xlink" viewBox="0 0 261 365"><symbol id="b" viewBox="0 0 185 212"><path fill="red" d="M21.3 6.2C3 16.7-4.9 43.4 3.1 63.5 21 109 77.4 153 92.3 211.5c14.7-59 71.7-103 89.7-148 8-20.1 0-47.5-19-57.3C138-7 111 3.76 92.3 31.6c-20.7-28.8-46-39.5-71-25.4z"/></symbol><symbol id="a" viewBox="0 0 204 225"><g fill="red"><path d="M47 149h106v-28H47z"/><path d="M87-.5l-87 226 31-1 72-186 72 186h29l-87-226z"/></g></symbol><rect ry="8.05" width="261" height="365" fill="#f9f9f9"/><use x="8.29" y="12.58" width="31.21" height="34.43" xlink:href="#a"/><use x="11.4" y="54.6" width="25" height="28" xlink:href="#b"/><use x="-237" y="-335" width="31.21" height="34.43" transform="rotate(180 7.805 8.61)" xlink:href="#a"/><use x="-237" y="-297" width="25" height="28" transform="rotate(180 6.25 7)" xlink:href="#b"/><use x="103.22" y="153" width="53.56" height="60" xlink:href="#b"/></svg>