<svg xmlns="http://www.w3.org/2000/svg" xmlns:xlink="http://www.w3.org/1999/xlink" viewBox="0 0 261 365"><symbol id="b" viewBox="0 0 208 207"><path d="M69.3 76.6C38.3 51.5-9 79.7 1.5 124c10.5 45 73.1 54 100-3 1 75-54.2 77-68.8 81l-1.1 5h144l-1-5c-15-4-69-6-69-81 28 57 90 48 101 3 10-44.3-37-72.5-68-47.4 28-37.2 2-76.6-35-76.6-36.9 0-63.1 39.4-34.7 76.6z"/></symbol><symbol id="a" viewBox="0 0 204 225"><path d="M47 149h106v-28H47z"/><path d="M87-.5l-87 226 31-1 72-186 72 186h29l-87-226z"/></symbol><rect ry="8.05" width="261" height="365" fill="#f9f9f9"/><use x="8.29" y="12.58" width="31.21" height="34.43" xlink:href="#a"/><use x="9.7" y="54.6" width="28.4" height="28" xlink:href="#b"/><use x="-237" y="-335" width="31.21" height="34.43" transform="rotate(180 7.805 8.61)" xlink:href="#a"/><use x="-237" y="-297" width="28.4" height="28" transform="rotate(180 7.1 7)" xlink:href="#b"/><use x="102.61" y="156" width="54.77" height="54" xlink:href="#b"/></svg>